<?xml version="1.0" standalone="no"?>
<!DOCTYPE svg PUBLIC "-//W3C//DTD SVG 20010904//EN"
 "http://www.w3.org/TR/2001/REC-SVG-20010904/DTD/svg10.dtd">
<svg version="1.0" xmlns="http://www.w3.org/2000/svg"
 width="512.000000pt" height="512.000000pt" viewBox="0 0 512.000000 512.000000"
 preserveAspectRatio="xMidYMid meet">

<g transform="translate(0.000000,512.000000) scale(0.100000,-0.100000)"
fill="#000000" stroke="none">
<path d="M2540 4000 c0 -493 3 -750 10 -750 7 0 10 257 10 750 0 493 -3 750
-10 750 -7 0 -10 -257 -10 -750z"/>
<path d="M2580 4000 l0 -749 153 63 c83 35 400 167 704 295 303 127 554 231
557 231 3 0 6 -150 6 -333 l0 -333 -30 -17 c-46 -28 -84 -101 -84 -162 0 -58
30 -123 70 -152 l27 -20 -65 -106 c-37 -58 -69 -115 -73 -126 -9 -28 21 -80
50 -87 50 -12 71 3 127 91 29 47 55 85 58 85 3 0 28 -37 56 -82 53 -87 79
-106 127 -94 31 7 61 58 52 87 -4 11 -36 67 -72 125 l-65 104 29 28 c71 66 87
165 39 246 -14 25 -40 53 -56 62 l-29 18 -3 430 c-3 413 -4 433 -23 466 -19
32 -41 44 -235 126 -232 99 -920 387 -1167 490 l-153 63 0 -749z"/>
<path d="M3185 3319 c-286 -121 -531 -222 -545 -225 -66 -15 -60 25 -60 -410
0 -325 2 -394 14 -394 64 0 289 25 374 41 266 51 510 166 671 315 50 46 61 62
66 97 3 23 5 212 3 419 l-3 377 -520 -220z"/>
<path d="M2540 2685 c0 -257 4 -395 10 -395 6 0 10 138 10 395 0 257 -4 395
-10 395 -6 0 -10 -138 -10 -395z"/>
<path d="M3902 2125 c-23 -7 -145 -57 -270 -111 -125 -54 -228 -98 -229 -98
-1 -1 7 -26 17 -56 25 -70 25 -169 1 -237 -10 -29 -16 -53 -13 -53 18 0 891
437 889 445 -2 6 -26 27 -53 48 -89 68 -237 95 -342 62z"/>
<path d="M2540 1765 c0 -143 4 -225 10 -225 6 0 10 82 10 225 0 143 -4 225
-10 225 -6 0 -10 -82 -10 -225z"/>
<path d="M2580 1766 l0 -226 263 0 c256 0 263 1 314 24 151 71 149 295 -4 358
-24 10 -127 24 -278 37 -132 12 -252 24 -267 27 l-28 6 0 -226z"/>
<path d="M4595 1960 c-16 -4 -455 -218 -975 -474 -520 -257 -966 -472 -992
-478 l-48 -11 0 -223 0 -223 33 18 c17 10 499 261 1071 557 622 323 1050 551
1067 568 49 51 55 147 11 205 -37 50 -109 76 -167 61z"/>
<path d="M2540 1270 c0 -60 4 -100 10 -100 6 0 10 40 10 100 0 60 -4 100 -10
100 -6 0 -10 -40 -10 -100z"/>
<path d="M2580 1270 c0 -55 4 -100 8 -100 5 0 98 45 208 99 l199 100 -207 0
-208 1 0 -100z"/>
<path d="M2540 764 c0 -154 3 -233 10 -229 6 4 10 93 10 236 0 146 -4 229 -10
229 -6 0 -10 -85 -10 -236z"/>
</g>
</svg>
