<svg width="438" height="364" viewBox="0 0 438 364" fill="none" xmlns="http://www.w3.org/2000/svg">
<path d="M118.022 57.9441C117.925 57.9441 115.07 57.4612 109.542 56.5069C109.409 56.4842 109.326 56.3777 109.353 56.2688C109.381 56.16 109.511 56.092 109.644 56.1147C112.898 56.6769 117.822 57.5202 118.05 57.5451C118.185 57.5451 118.282 57.6335 118.282 57.7446C118.279 57.8534 118.158 57.9441 118.022 57.9441Z" fill="#1F0F0A"/>
<path d="M79.4263 36.2008C77.1525 34.7772 77.5541 32.0411 77.5541 32.0411C75.549 34.3397 76.2164 35.9832 78.8918 36.7494C74.7458 39.2679 73.2752 42.8812 74.2113 48.2446C75.1474 53.608 77.4212 59.4111 77.4212 59.4111L96.4145 61.9296L111.663 47.0409C113.536 44.0849 113.403 40.6914 113.403 40.6914C113.937 42.2238 116.211 41.2377 116.078 37.4068C115.945 33.5758 109.791 33.4647 103.64 33.0272C97.4863 32.5897 94.1435 30.0712 88.5269 30.8374C82.9048 31.6014 79.695 33.1338 79.4263 36.2008Z" fill="#1F0F0A"/>
<path d="M112.541 69.8813C110.669 73.8959 106.567 73.8959 103.803 74.2609L103.482 79.9801L83.9179 77.1806C83.9179 77.1806 84.1865 69.8088 81.6884 62.7294C79.1017 65.2841 72.3247 63.0944 72.5047 58.0574C72.682 53.0205 78.8358 52.2905 81.5112 55.8676C84.1865 56.525 84.5438 54.4803 84.5438 54.4803C86.6846 55.5027 88.3768 54.4803 87.9309 51.4155C87.485 48.3507 90.249 41.854 87.1278 41.9265C88.2882 41.4165 89.6259 40.9767 90.249 40.3941C90.8722 39.8093 91.0522 36.9644 91.0522 36.9644C93.9934 39.8115 104.16 40.8316 105.052 39.9566C105.944 39.0816 105.767 37.9119 105.767 37.9119C107.727 39.0793 111.117 41.7066 111.92 44.7714C112.724 47.8362 112.189 54.9904 112.189 57.6176C112.184 60.2472 113.79 66.744 112.541 69.8813Z" fill="#FF8F6E"/>
<path d="M103.587 345.114C99.6766 353.247 100.818 360.05 100.818 360.05H162.237C159.955 354.582 146.107 347.383 133.888 345.914C121.669 344.447 119.063 339.247 119.063 339.247L103.587 345.114Z" fill="#E68164"/>
<path d="M102.88 346.699C103.559 347.295 104.456 348.149 105.603 349.364H126.313C126.313 349.364 125.596 346.59 127.931 344.738C129.603 345.223 131.573 345.635 133.888 345.914C146.107 347.381 159.954 354.583 162.237 360.05H100.817C100.817 360.048 99.8228 354.111 102.88 346.699Z" fill="#000724"/>
<path d="M85.6071 172.923C80.6331 201.418 98.4826 349.38 98.4826 349.38L127.576 344.699L126.831 340.221L122.605 337.78L124.347 335.744L123.353 179.162L85.6071 172.923Z" fill="#000724"/>
<path d="M68.8991 345.114C64.9886 353.247 66.1296 360.05 66.1296 360.05H127.549C125.267 354.582 111.419 347.383 99.2004 345.914C86.9813 344.447 84.3752 339.247 84.3752 339.247L68.8991 345.114Z" fill="#FF8F6E"/>
<path d="M68.2439 346.699C68.9224 347.295 69.8197 348.149 70.9663 349.364H91.6767C91.6767 349.364 90.9594 346.59 93.2941 344.738C94.9669 345.223 96.936 345.635 99.2514 345.914C111.47 347.381 125.318 354.583 127.6 360.05H66.1806C66.1806 360.048 65.1863 354.111 68.2439 346.699Z" fill="#000F4E"/>
<path d="M69.1992 357.414H113.309C113.434 357.414 113.539 357.337 113.553 357.237C113.567 357.135 113.486 357.042 113.367 357.019C113.204 356.988 96.9774 353.844 93.5875 350.289C93.5044 350.203 93.3521 350.187 93.2441 350.255C93.1388 350.323 93.1194 350.448 93.2025 350.536C96.0164 353.485 106.856 356.056 111.332 357.015H69.1992C69.0634 357.015 68.9554 357.103 68.9554 357.214C68.9527 357.325 69.0634 357.414 69.1992 357.414Z" fill="#2F4394"/>
<path d="M97.7246 349.563C97.7301 349.563 97.7357 349.563 97.7412 349.563C97.8769 349.557 97.9766 349.461 97.9683 349.35C97.9655 349.321 97.7717 346.428 100.447 345.497C100.572 345.454 100.63 345.336 100.577 345.234C100.525 345.132 100.381 345.084 100.256 345.127C97.2593 346.17 97.4781 349.344 97.4809 349.375C97.4892 349.482 97.5944 349.563 97.7246 349.563Z" fill="#2F4394"/>
<path d="M102.864 350.812C102.869 350.812 102.875 350.812 102.88 350.812C103.016 350.806 103.116 350.71 103.107 350.599C103.105 350.57 102.911 347.677 105.586 346.746C105.711 346.703 105.769 346.585 105.716 346.483C105.664 346.381 105.52 346.333 105.395 346.376C102.398 347.419 102.617 350.593 102.62 350.624C102.628 350.733 102.734 350.812 102.864 350.812Z" fill="#2F4394"/>
<path d="M107.078 352.064C107.083 352.064 107.089 352.064 107.094 352.064C107.23 352.057 107.33 351.962 107.322 351.851C107.319 351.821 107.125 348.929 109.8 347.997C109.925 347.954 109.983 347.836 109.93 347.734C109.878 347.632 109.734 347.585 109.609 347.628C106.613 348.67 106.831 351.844 106.834 351.876C106.842 351.982 106.95 352.064 107.078 352.064Z" fill="#2F4394"/>
<path d="M64.6436 175.292C59.6696 203.787 63.1509 349.38 63.1509 349.38L92.2446 344.699L91.4996 340.222L87.2733 337.78L89.0126 335.745L105.425 199.718C105.425 199.718 109.405 200.94 109.405 198.496C109.405 196.055 108.906 174.887 108.906 174.887L64.6436 175.292Z" fill="#000F4E"/>
<path d="M66.075 86.627L77.8288 83.2562C79.8561 82.6759 81.1799 81.0755 81.0885 79.3187C80.9833 77.3012 83.3678 75.8141 85.7164 76.4352L86.6303 76.6778C91.0145 77.8384 98.2678 78.0651 102.749 77.181L103.076 77.1176C105.048 76.7277 107.017 77.7727 107.388 79.4071C107.587 80.2821 108.219 81.0505 109.133 81.5334C116.738 84.9042 123.163 89.8187 127.771 95.8123C128.057 96.1818 128.334 96.5422 128.605 96.889L143.408 115.763L149.626 89.1001H158.452L163.177 103.041L158.951 135.403L154.724 142.165C151.456 147.392 142.843 148.383 137.941 144.094L122.894 130.926L124.883 180.994C103.746 185.879 84.1018 180.586 84.1018 180.586L85.0683 187.695L65.1915 188.295L51.1612 151.216C48.7905 144.375 47.8793 137.255 48.472 130.16C49.3638 119.451 51.3827 103.721 55.8278 94.6222C57.664 90.866 61.4167 87.9644 66.075 86.627Z" fill="#0112B8"/>
<path d="M211.421 158.423C211.421 158.423 210.77 152.688 209.302 149.621C207.837 146.554 202.786 145.62 193.499 145.62H168.505C166.613 145.62 165.674 147.503 167.034 148.582C168.075 149.408 170.05 150.119 173.296 150.421C180.463 151.087 190.24 149.754 193.173 152.821C196.106 155.888 198.224 161.755 198.224 161.755L213.54 159.887L211.421 158.423Z" fill="#FF8F6E"/>
<path d="M262.464 72.4796L249.104 62.0112L248.614 72.8128L261.16 82.2791L264.093 80.2798L262.464 72.4796Z" fill="#FF8F6E"/>
<path d="M334.922 254.167L345.676 340.845C335.249 348.312 331.014 356.046 331.014 356.046C331.014 356.046 321.809 358.313 322.055 359.913C322.055 359.913 340.68 359.913 342.095 359.913C346.984 357.712 357.466 348.856 356.879 351.012C356.635 351.911 356.392 360.113 356.392 360.113H360.911C362.255 356.912 366.899 347.811 365.678 343.311C364.456 338.811 362.745 339.811 362.136 337.71C361.526 335.608 365.556 304.838 367.187 282.97C368.816 261.101 365.559 252.032 365.559 252.032L334.922 254.167Z" fill="#E68164"/>
<path d="M322.055 359.914C322.055 359.914 340.68 359.914 342.095 359.914C346.983 357.713 357.466 348.856 356.879 351.012C356.635 351.912 356.391 360.114 356.391 360.114H360.911C362.255 356.913 366.899 347.811 365.678 343.312C364.908 340.476 363.944 339.823 363.182 339.204C351.329 344.751 338.786 359.046 331.014 356.047C331.014 356.047 321.811 358.314 322.055 359.914Z" fill="#000724"/>
<path d="M364.728 254.167L375.482 340.845C365.055 348.312 360.821 356.046 360.821 356.046C360.821 356.046 351.615 358.313 351.861 359.913C351.861 359.913 370.486 359.913 371.901 359.913C376.79 357.712 387.272 348.856 386.685 351.012C386.441 351.911 386.198 360.113 386.198 360.113H390.718C392.061 356.912 396.705 347.811 395.484 343.311C394.263 338.811 392.551 339.811 391.942 337.71C391.33 335.608 395.362 304.838 396.993 282.97C398.622 261.101 395.365 252.032 395.365 252.032L364.728 254.167Z" fill="#FF8F6E"/>
<path d="M351.861 359.914C351.861 359.914 370.486 359.914 371.901 359.914C376.79 357.713 387.272 348.856 386.685 351.012C386.441 351.912 386.198 360.114 386.198 360.114H390.717C392.061 356.913 396.705 347.811 395.484 343.312C394.714 340.476 393.75 339.823 392.988 339.204C381.135 344.751 368.592 359.046 360.821 356.047C360.823 356.047 351.617 358.314 351.861 359.914Z" fill="#000F4E"/>
<path d="M371.407 118.685H393.89C404.153 106.684 399.512 89.8821 390.469 78.4798C381.427 67.0776 384.85 66.2774 386.071 54.4761C387.293 42.6749 380.205 41.4735 368.72 37.0735C354.79 31.2727 341.105 36.6746 338.906 45.674C336.707 54.6756 339.394 57.4752 333.775 70.0766C328.152 82.678 327.909 96.6804 327.909 96.6804C327.909 96.6804 348.927 113.883 349.658 114.482C350.392 115.085 371.407 118.685 371.407 118.685Z" fill="#1F0F0A"/>
<path d="M330.63 140.587C299.105 180.692 297.64 257.901 297.64 257.901C297.64 257.901 402.48 259.302 404.189 257.901C409.077 213.894 380.728 139.886 380.728 139.886L342.116 135.085L330.63 140.587Z" fill="#000F4E"/>
<path d="M380.822 78.48C386.89 82.014 386.937 85.1718 386.89 98.8159C386.81 123.085 385.832 162.691 385.832 162.691H369.093L367.872 140.589H330.605C329.14 129.489 322.297 118.687 321.807 116.287C321.316 113.886 324.249 107.085 324.74 106.086L296.546 113.138C292.25 114.212 287.581 113.233 284.446 110.597L253.136 84.2832L262.423 72.4819L292.236 92.2851C305.921 89.2838 327.916 78.4846 333.619 80.2844L336.715 84.0859L354.31 85.2851L369.218 84.4849L380.822 78.48Z" fill="#0112B8"/>
<path d="M333.652 80.2795C333.001 84.2805 335.607 91.6137 349.945 92.4139C364.283 93.2141 371.024 87.5289 380.858 78.4796C377.743 77.3802 371.774 79.1959 366.399 80.9459C361.023 82.6959 364.341 69.0268 366.726 66.0777C370.697 67.7279 373.954 64.6269 376.031 61.077C376.031 61.077 372.672 60.8775 370.409 59.828L368.515 61.578C368.515 61.578 369.127 60.0274 368.88 59.0776C360.389 56.677 354.097 46.7754 358.312 39.7754C350.92 41.8088 346.846 45.1433 345.054 48.2103C343.262 51.2774 342.772 54.0112 342.041 56.5456C341.307 59.0799 339.922 64.679 341.227 69.147C342.531 73.6149 346.439 75.2811 349.292 75.0816C349.211 78.8831 347.807 83.5369 344.403 83.4825C340.249 83.4123 333.652 80.2795 333.652 80.2795Z" fill="#FF8F6E"/>
<path d="M315.458 118.32C319.778 120.419 317.349 127.383 313.162 132.025C308.977 136.668 298.173 141.088 298.173 141.088L280.349 118.873C279.808 113.458 287.641 106.052 289.529 106.496C289.125 104.064 291.014 101.634 293.174 101.634C295.334 101.634 295.874 104.95 301.682 107.822C307.49 110.694 316.942 112.24 315.458 118.32Z" fill="#1F0F0A"/>
<path d="M363.364 263.013H292.758L300.252 177.893H379.106L363.364 263.013Z" fill="#F0A355"/>
<path d="M299.902 150.155L305.767 154.421L322.285 158.549C325.356 159.317 327.888 161.115 329.247 163.497L356.619 211.459C359.626 216.728 357.591 223.005 351.786 226.357C347.684 228.728 342.383 229.216 337.739 227.654L324.996 223.363L324.345 234.031L255.756 232.296L257.06 199.092L240.778 210.884C237.563 212.965 233.406 213.808 229.373 213.198C225.05 212.543 221.342 210.288 219.328 207.089L191.315 159.988L213.39 158.155L232.126 183.89L258.007 157.753C259.289 156.459 261.07 155.563 263.062 155.212L275.139 153.086L283.775 150.418L299.902 150.155Z" fill="#85B5FF"/>
<path d="M195.591 167.291L218.32 164.89L213.39 158.155L191.315 159.989L195.591 167.291Z" fill="white"/>
<path d="M159.225 276.303H124.097V360.047H159.225V276.303Z" fill="#2A345E"/>
<path d="M159.243 360.049H192.702V276.305H159.243V360.049Z" fill="#3E4D8C"/>
<path d="M355.738 255.691L370.153 184.126C370.521 180.381 374.526 177.591 379.099 177.89C383.674 178.192 387.083 181.47 386.717 185.212L372.302 256.777C371.934 260.521 367.929 263.312 363.357 263.013C358.781 262.713 355.369 259.436 355.738 255.691Z" fill="#FFD35A"/>
<path d="M317.174 277.639H266.019C261.43 277.639 257.71 274.594 257.71 270.838C257.71 267.082 261.43 264.038 266.019 264.038H317.174C321.763 264.038 325.483 267.082 325.483 270.838C325.483 274.592 321.763 277.639 317.174 277.639Z" fill="#F0A355"/>
<path d="M192.613 345.114C196.524 353.247 195.383 360.05 195.383 360.05H133.963C136.245 354.582 150.093 347.383 162.312 345.914C174.531 344.447 177.137 339.247 177.137 339.247L192.613 345.114Z" fill="#E68164"/>
<path d="M193.268 346.699C192.59 347.295 191.692 348.149 190.546 349.364H169.835C169.835 349.364 170.553 346.59 168.218 344.738C166.545 345.223 164.576 345.635 162.261 345.914C150.042 347.381 136.194 354.583 133.912 360.05H195.332C195.332 360.048 196.326 354.111 193.268 346.699Z" fill="#000724"/>
<path d="M192.245 357.414H148.135C148.011 357.414 147.905 357.337 147.892 357.237C147.878 357.135 147.958 357.042 148.077 357.019C148.241 356.988 164.467 353.844 167.857 350.289C167.94 350.203 168.092 350.187 168.2 350.255C168.306 350.323 168.325 350.448 168.242 350.536C165.428 353.485 154.588 356.056 150.113 357.015H192.243C192.378 357.015 192.486 357.103 192.486 357.214C192.489 357.325 192.381 357.414 192.245 357.414Z" fill="#152B8A"/>
<path d="M163.712 349.563C163.707 349.563 163.701 349.563 163.696 349.563C163.56 349.557 163.46 349.461 163.468 349.35C163.471 349.321 163.665 346.428 160.99 345.497C160.865 345.454 160.807 345.336 160.86 345.234C160.912 345.132 161.056 345.084 161.181 345.127C164.177 346.17 163.959 349.344 163.956 349.375C163.948 349.482 163.84 349.563 163.712 349.563Z" fill="#152B8A"/>
<path d="M158.573 350.812C158.568 350.812 158.562 350.812 158.557 350.812C158.421 350.806 158.321 350.71 158.33 350.599C158.332 350.57 158.526 347.677 155.851 346.746C155.726 346.703 155.668 346.585 155.721 346.483C155.773 346.381 155.917 346.333 156.042 346.376C159.039 347.419 158.82 350.593 158.817 350.624C158.809 350.733 158.701 350.812 158.573 350.812Z" fill="#152B8A"/>
<path d="M154.359 352.064C154.354 352.064 154.348 352.064 154.343 352.064C154.207 352.057 154.107 351.962 154.116 351.851C154.118 351.821 154.312 348.929 151.637 347.997C151.512 347.954 151.454 347.836 151.507 347.734C151.559 347.632 151.703 347.585 151.828 347.628C154.825 348.67 154.606 351.844 154.603 351.876C154.595 351.982 154.487 352.064 154.359 352.064Z" fill="#152B8A"/>
<path d="M273.989 234.7C274.64 250.434 267.799 262.169 258.35 264.037C248.9 265.905 203.934 264.037 203.934 264.037L196.44 346.981L164.181 341.115L169.891 249.74C170.346 242.459 177.577 236.692 186.481 236.509L273.989 234.7Z" fill="#000724"/>
<path d="M203.674 263.904C203.663 263.904 203.649 263.904 203.638 263.902L197.894 263.201C197.761 263.185 197.67 263.083 197.689 262.974C197.709 262.866 197.836 262.793 197.966 262.807L203.328 263.46L201.605 258.76C201.566 258.654 201.638 258.543 201.769 258.511C201.899 258.479 202.034 258.538 202.073 258.645L203.907 263.645C203.932 263.711 203.912 263.781 203.857 263.834C203.813 263.879 203.746 263.904 203.674 263.904Z" fill="#152B8A"/>
<path d="M241.899 345.114C245.81 353.247 244.669 360.05 244.669 360.05H183.246C185.528 354.582 199.376 347.383 211.595 345.914C223.814 344.447 226.42 339.247 226.42 339.247L241.899 345.114Z" fill="#FF8F6E"/>
<path d="M242.605 346.699C241.927 347.295 241.029 348.149 239.883 349.364H219.17C219.17 349.364 219.887 346.59 217.552 344.738C215.879 345.223 213.91 345.635 211.595 345.914C199.376 347.381 185.528 354.583 183.246 360.05H244.666C244.669 360.048 245.663 354.111 242.605 346.699Z" fill="#000F4E"/>
<path d="M241.58 357.414H197.469C197.345 357.414 197.24 357.337 197.226 357.237C197.212 357.135 197.292 357.042 197.411 357.019C197.575 356.988 213.801 353.844 217.191 350.289C217.274 350.203 217.427 350.187 217.535 350.255C217.64 350.323 217.659 350.448 217.576 350.536C214.762 353.485 203.922 356.056 199.447 357.015H241.577C241.712 357.015 241.821 357.103 241.821 357.214C241.826 357.325 241.715 357.414 241.58 357.414Z" fill="#2F4394"/>
<path d="M213.098 349.563C213.092 349.563 213.087 349.563 213.081 349.563C212.946 349.557 212.846 349.461 212.854 349.35C212.857 349.321 213.051 346.428 210.376 345.497C210.251 345.454 210.193 345.336 210.245 345.234C210.298 345.132 210.442 345.084 210.567 345.127C213.563 346.17 213.344 349.344 213.342 349.375C213.333 349.482 213.228 349.563 213.098 349.563Z" fill="#2F4394"/>
<path d="M207.959 350.812C207.954 350.812 207.948 350.812 207.942 350.812C207.807 350.806 207.707 350.71 207.715 350.599C207.718 350.57 207.912 347.677 205.237 346.746C205.112 346.703 205.054 346.585 205.107 346.483C205.159 346.381 205.303 346.333 205.428 346.376C208.424 347.419 208.206 350.593 208.203 350.624C208.195 350.733 208.089 350.812 207.959 350.812Z" fill="#2F4394"/>
<path d="M203.745 352.064C203.74 352.064 203.734 352.064 203.729 352.064C203.593 352.057 203.493 351.962 203.501 351.851C203.504 351.821 203.698 348.929 201.023 347.997C200.898 347.954 200.84 347.836 200.893 347.734C200.945 347.632 201.089 347.585 201.214 347.628C204.21 348.67 203.992 351.844 203.989 351.876C203.981 351.982 203.873 352.064 203.745 352.064Z" fill="#2F4394"/>
<path d="M323.375 234.7C324.026 250.434 317.185 262.169 307.735 264.037C298.286 265.905 253.32 264.037 253.32 264.037L245.826 346.981L213.566 341.115L219.277 249.74C219.731 242.459 226.963 236.692 235.867 236.509L323.375 234.7Z" fill="#000F4E"/>
<path d="M219.875 215.497H147.253C146.073 215.497 145.115 214.713 145.115 213.747V175.374C145.115 174.408 146.073 173.624 147.253 173.624H219.875C221.055 173.624 222.013 174.408 222.013 175.374V213.745C222.013 214.713 221.055 215.497 219.875 215.497Z" fill="#4B5EAB"/>
<path d="M215.969 215.497H143.347C142.167 215.497 141.209 214.713 141.209 213.747V175.374C141.209 174.408 142.167 173.624 143.347 173.624H215.969C217.149 173.624 218.107 174.408 218.107 175.374V213.745C218.107 214.713 217.149 215.497 215.969 215.497Z" fill="#3E4D8C"/>
<path d="M187.548 211.995H173.739V228.996H187.548V211.995Z" fill="#4B5EAB"/>
<path d="M186.572 211.995H172.763V228.996H186.572V211.995Z" fill="#3B4A87"/>
<path d="M201.203 231.399H170.656V228.398H197.537C199.561 228.398 201.203 229.742 201.203 231.399Z" fill="#3E4D8C"/>
<path d="M400.467 236.899H105.461C103.605 236.899 102.102 235.668 102.102 234.149C102.102 232.63 103.605 231.399 105.461 231.399H400.467C402.323 231.399 403.826 232.63 403.826 234.149C403.829 235.668 402.323 236.899 400.467 236.899Z" fill="#3E4D8C"/>
<path d="M150.024 210.095C150.024 210.648 149.476 211.095 148.803 211.095C148.127 211.095 147.582 210.646 147.582 210.095C147.582 209.542 148.13 209.095 148.803 209.095C149.476 209.095 150.024 209.544 150.024 210.095Z" fill="#4B5EAB"/>
<path d="M155.42 210.095C155.42 210.648 154.872 211.095 154.199 211.095C153.526 211.095 152.978 210.646 152.978 210.095C152.978 209.542 153.526 209.095 154.199 209.095C154.872 209.095 155.42 209.544 155.42 210.095Z" fill="#4B5EAB"/>
<path d="M160.765 210.095C160.765 210.648 160.217 211.095 159.544 211.095C158.871 211.095 158.322 210.646 158.322 210.095C158.322 209.542 158.871 209.095 159.544 209.095C160.217 209.095 160.765 209.544 160.765 210.095Z" fill="#4B5EAB"/>
<path d="M158.349 205.696C158.349 206.249 157.801 206.696 157.128 206.696C156.452 206.696 155.907 206.247 155.907 205.696C155.907 205.143 156.455 204.696 157.128 204.696C157.801 204.696 158.349 205.143 158.349 205.696Z" fill="#4B5EAB"/>
<path d="M152.953 205.696C152.953 206.249 152.405 206.696 151.732 206.696C151.056 206.696 150.511 206.247 150.511 205.696C150.511 205.143 151.059 204.696 151.732 204.696C152.405 204.696 152.953 205.143 152.953 205.696Z" fill="#4B5EAB"/>
<path d="M253.009 263.904C252.997 263.904 252.984 263.904 252.973 263.902L247.229 263.201C247.096 263.185 247.004 263.083 247.024 262.974C247.043 262.866 247.17 262.793 247.301 262.807L252.662 263.46L250.94 258.76C250.901 258.654 250.973 258.543 251.103 258.511C251.233 258.479 251.369 258.538 251.408 258.645L253.241 263.645C253.266 263.711 253.247 263.781 253.191 263.834C253.147 263.879 253.081 263.904 253.009 263.904Z" fill="#2F4394"/>
<path d="M361.678 277.639H310.523C305.933 277.639 302.214 274.594 302.214 270.838C302.214 267.082 305.933 264.038 310.523 264.038H361.678C366.267 264.038 369.987 267.082 369.987 270.838C369.987 274.592 366.267 277.639 361.678 277.639Z" fill="#FFD35A"/>
<path d="M318.653 330.59C295.48 330.59 273.662 337.631 258.429 349.74L264.362 354.199C278.024 343.255 297.712 336.883 318.653 336.883C338.834 336.883 358.06 342.892 371.672 353.215L377.15 348.421C362.001 337.141 340.834 330.59 318.653 330.59Z" fill="#4B5EAB"/>
<path d="M320.515 280.966H312.132V352.422H320.515V280.966Z" fill="#4B5EAB"/>
<path d="M323.438 348.705H309.203V360.048H323.438V348.705Z" fill="#000F4E"/>
<path d="M316.319 354.138C310.771 354.138 306.274 350.457 306.274 345.916V343.414H326.361V345.916C326.364 350.457 321.866 354.138 316.319 354.138Z" fill="#3E4D8C"/>
<path d="M267.401 357.624C271.039 354.646 271.039 349.817 267.401 346.839C263.763 343.861 257.864 343.861 254.225 346.839C250.587 349.817 250.587 354.646 254.225 357.624C257.864 360.602 263.763 360.602 267.401 357.624Z" fill="#000F4E"/>
<path d="M260.815 356.498C257.94 356.498 255.603 354.585 255.603 352.232C255.603 349.879 257.94 347.965 260.815 347.965C261.009 347.965 261.164 348.092 261.164 348.251C261.164 348.41 261.009 348.537 260.815 348.537C258.328 348.537 256.304 350.194 256.304 352.229C256.304 354.265 258.328 355.922 260.815 355.922C263.302 355.922 265.327 354.265 265.327 352.229C265.327 352.071 265.482 351.944 265.676 351.944C265.87 351.944 266.025 352.071 266.025 352.229C266.027 354.585 263.69 356.498 260.815 356.498Z" fill="#4B5EAB"/>
<path d="M382.409 354.02C383.592 349.921 380.491 345.814 375.483 344.846C370.476 343.878 365.458 346.417 364.275 350.515C363.093 354.614 366.194 358.721 371.201 359.689C376.209 360.657 381.227 358.119 382.409 354.02Z" fill="#000724"/>
<path d="M373.359 356.498C370.484 356.498 368.147 354.585 368.147 352.232C368.147 349.879 370.484 347.965 373.359 347.965C373.553 347.965 373.708 348.092 373.708 348.251C373.708 348.41 373.553 348.537 373.359 348.537C370.872 348.537 368.847 350.194 368.847 352.229C368.847 354.265 370.872 355.922 373.359 355.922C375.846 355.922 377.87 354.265 377.87 352.229C377.87 352.071 378.026 351.944 378.219 351.944C378.413 351.944 378.568 352.071 378.568 352.229C378.571 354.585 376.234 356.498 373.359 356.498Z" fill="#4B5EAB"/>
<path d="M330.58 288.116H302.048C294.845 288.116 289.006 283.337 289.006 277.441H343.624C343.624 283.335 337.783 288.116 330.58 288.116Z" fill="#3E4D8C"/>
<path d="M146.601 282.972H128.516V312.842H146.601V282.972Z" fill="#3E4D8C"/>
<path d="M156.244 330.697C157.568 326.109 154.097 321.513 148.493 320.429C142.888 319.346 137.272 322.187 135.949 326.774C134.625 331.361 138.096 335.958 143.7 337.041C149.305 338.125 154.921 335.284 156.244 330.697Z" fill="#3E4D8C"/>
<path d="M132.938 286.706C132.938 287.148 132.501 287.506 131.96 287.506C131.42 287.506 130.983 287.148 130.983 286.706C130.983 286.264 131.42 285.906 131.96 285.906C132.501 285.906 132.938 286.264 132.938 286.706Z" fill="#4B5EAB"/>
<path d="M138.283 286.706C138.283 287.148 137.845 287.506 137.305 287.506C136.765 287.506 136.327 287.148 136.327 286.706C136.327 286.264 136.765 285.906 137.305 285.906C137.845 285.906 138.283 286.264 138.283 286.706Z" fill="#4B5EAB"/>
<path d="M138.283 291.106C138.283 291.548 137.845 291.906 137.305 291.906C136.765 291.906 136.327 291.548 136.327 291.106C136.327 290.664 136.765 290.306 137.305 290.306C137.845 290.306 138.283 290.664 138.283 291.106Z" fill="#4B5EAB"/>
<path d="M138.283 295.506C138.283 295.948 137.845 296.306 137.305 296.306C136.765 296.306 136.327 295.948 136.327 295.506C136.327 295.064 136.765 294.706 137.305 294.706C137.845 294.706 138.283 295.064 138.283 295.506Z" fill="#4B5EAB"/>
<path d="M138.283 299.908C138.283 300.35 137.845 300.708 137.305 300.708C136.765 300.708 136.327 300.35 136.327 299.908C136.327 299.466 136.765 299.108 137.305 299.108C137.845 299.108 138.283 299.466 138.283 299.908Z" fill="#4B5EAB"/>
<path d="M132.938 291.106C132.938 291.548 132.501 291.906 131.96 291.906C131.42 291.906 130.983 291.548 130.983 291.106C130.983 290.664 131.42 290.306 131.96 290.306C132.501 290.306 132.938 290.664 132.938 291.106Z" fill="#4B5EAB"/>
<path d="M132.938 295.506C132.938 295.948 132.501 296.306 131.96 296.306C131.42 296.306 130.983 295.948 130.983 295.506C130.983 295.064 131.42 294.706 131.96 294.706C132.501 294.706 132.938 295.064 132.938 295.506Z" fill="#4B5EAB"/>
<path d="M132.938 299.908C132.938 300.35 132.501 300.708 131.96 300.708C131.42 300.708 130.983 300.35 130.983 299.908C130.983 299.466 131.42 299.108 131.96 299.108C132.501 299.108 132.938 299.466 132.938 299.908Z" fill="#4B5EAB"/>
<path d="M131.946 286.905C131.81 286.905 131.702 286.815 131.702 286.704L131.835 256.054C131.852 252.182 135.715 249.033 140.443 249.033C144.921 249.033 148.563 246.052 148.563 242.387V210.095C148.563 209.984 148.671 209.896 148.807 209.896C148.943 209.896 149.051 209.984 149.051 210.095V242.387C149.051 246.272 145.19 249.432 140.443 249.432C135.981 249.432 132.339 252.404 132.323 256.056L132.19 286.706C132.19 286.817 132.082 286.905 131.946 286.905Z" fill="#4B5EAB"/>
<path d="M137.29 286.905C137.155 286.905 137.047 286.817 137.047 286.706V279.105C137.047 275.244 140.883 272.105 145.599 272.105C150.047 272.105 153.664 269.144 153.664 265.504V210.097C153.664 209.986 153.772 209.898 153.908 209.898C154.043 209.898 154.151 209.986 154.151 210.097V265.504C154.151 269.364 150.315 272.504 145.599 272.504C141.151 272.504 137.534 275.464 137.534 279.105V286.706C137.537 286.817 137.426 286.905 137.29 286.905Z" fill="#4B5EAB"/>
<path d="M273.773 187.427L267.42 174.692L254.63 173.758L247.136 178.825C246.892 180.425 250.313 180.892 252.675 179.759C255.038 178.625 255.445 178.292 255.445 178.292L259.028 179.026L254.954 179.425C254.954 179.425 248.194 183.692 248.031 183.893C247.624 185.226 249.659 186.095 251.371 185.494C249.906 188.228 253.813 188.228 254.874 187.894C254.223 190.227 257.563 190.562 260.82 190.828C264.077 191.095 264.648 195.495 265.055 197.762C265.462 200.029 269.046 201.495 273.447 201.495L285.585 206.129L289.006 193.228L273.773 187.427Z" fill="#FF8F6E"/>
<path d="M252.918 184.543C252.843 184.543 252.768 184.516 252.721 184.462C252.641 184.373 252.666 184.246 252.774 184.183L256.441 181.982C256.482 181.957 256.532 181.943 256.585 181.943H260.434C260.57 181.943 260.678 182.032 260.678 182.143C260.678 182.254 260.57 182.342 260.434 182.342H256.665L253.065 184.505C253.02 184.53 252.97 184.543 252.918 184.543Z" fill="#C9B8B3"/>
<path d="M255.795 187.543C255.723 187.543 255.654 187.518 255.607 187.47C255.521 187.384 255.538 187.259 255.64 187.189L258.022 185.589C258.066 185.559 258.127 185.543 258.182 185.543L260.933 185.593C261.068 185.596 261.173 185.686 261.171 185.797C261.168 185.906 261.06 185.992 260.927 185.992C260.924 185.992 260.924 185.992 260.921 185.992L258.263 185.945L255.95 187.497C255.906 187.529 255.85 187.543 255.795 187.543Z" fill="#C9B8B3"/>
<path d="M264.843 178.342C264.771 178.342 264.699 178.317 264.652 178.265C264.131 177.723 264.037 177.027 264.416 176.492C264.774 175.986 265.471 175.746 266.283 175.844C266.416 175.859 266.51 175.961 266.488 176.07C266.468 176.179 266.344 176.254 266.211 176.238C265.593 176.163 265.095 176.329 264.837 176.691C264.56 177.084 264.635 177.605 265.034 178.015C265.117 178.101 265.1 178.228 264.992 178.296C264.951 178.328 264.895 178.342 264.843 178.342Z" fill="#C9B8B3"/>
<path d="M265.486 181.846C265.428 181.88 265.35 181.893 265.276 181.875C264.467 181.68 263.902 181.157 263.833 180.54C263.766 179.96 264.168 179.431 264.899 179.128C265.021 179.078 265.168 179.116 265.229 179.216C265.289 179.316 265.242 179.434 265.121 179.486C264.564 179.717 264.273 180.089 264.32 180.506C264.37 180.959 264.802 181.347 265.414 181.494C265.544 181.526 265.616 181.637 265.58 181.744C265.564 181.782 265.528 181.821 265.486 181.846Z" fill="#C9B8B3"/>
<path d="M265.589 185.679C265.531 185.713 265.453 185.727 265.378 185.709C264.57 185.514 264.005 184.99 263.935 184.373C263.869 183.793 264.271 183.265 265.002 182.961C265.124 182.911 265.27 182.95 265.331 183.05C265.392 183.149 265.345 183.267 265.223 183.319C264.667 183.551 264.376 183.922 264.423 184.339C264.473 184.793 264.905 185.18 265.517 185.328C265.647 185.36 265.719 185.471 265.683 185.577C265.666 185.618 265.633 185.654 265.589 185.679Z" fill="#C9B8B3"/>
<path d="M314.878 182.893C314.753 182.893 314.645 182.814 314.634 182.71C314.568 182.088 313.15 167.402 324.842 160.923C324.956 160.862 325.106 160.884 325.183 160.977C325.258 161.068 325.23 161.193 325.117 161.256C313.659 167.603 315.058 182.064 315.121 182.676C315.133 182.787 315.033 182.882 314.9 182.893C314.892 182.893 314.883 182.893 314.878 182.893Z" fill="#000F4E"/>
<path d="M323.216 201.133C323.122 201.131 323.034 201.087 322.994 201.011L316.727 188.981C316.674 188.878 316.731 188.761 316.857 188.72C316.982 188.677 317.125 188.725 317.176 188.828L323.442 200.858C323.496 200.961 323.438 201.078 323.313 201.121C323.282 201.13 323.249 201.134 323.216 201.133Z" fill="#000F4E"/>
<path d="M297.349 192.427L293.073 211.063L285.05 207.962L289.855 190.027L297.349 192.427Z" fill="white"/>
<path d="M323.537 222.765C323.504 222.765 323.468 222.758 323.435 222.747L284.986 208.212C284.883 208.173 284.825 208.08 284.85 207.987L289.575 189.984C289.588 189.927 289.636 189.877 289.699 189.85C289.763 189.823 289.838 189.819 289.904 189.841L331.61 203.309C331.735 203.349 331.799 203.465 331.749 203.569C331.699 203.671 331.558 203.721 331.433 203.683L289.993 190.301L285.37 207.917L323.642 222.384C323.764 222.429 323.82 222.55 323.761 222.649C323.72 222.722 323.631 222.765 323.537 222.765Z" fill="#000F4E"/>
<path d="M293.035 193.944C293.643 193.944 294.135 193.541 294.135 193.044C294.135 192.547 293.643 192.144 293.035 192.144C292.428 192.144 291.936 192.547 291.936 193.044C291.936 193.541 292.428 193.944 293.035 193.944Z" fill="#000F4E"/>
<path d="M197.214 163.29C197.214 163.787 196.721 164.19 196.114 164.19C195.508 164.19 195.015 163.787 195.015 163.29C195.015 162.794 195.508 162.39 196.114 162.39C196.721 162.39 197.214 162.794 197.214 163.29Z" fill="#000F4E"/>
<path d="M278.656 165.69L281.121 170.423L286.701 166.823L288.535 170.756C292.689 168.757 305.806 154.421 305.806 154.421L299.94 150.155L283.81 150.422L275.175 153.09L274.36 168.426L278.656 165.69Z" fill="white"/>
<path d="M288.521 170.959C288.422 170.959 288.33 170.909 288.294 170.829L284.259 162.152L274.502 168.581C274.397 168.649 274.242 168.635 274.159 168.551C274.073 168.465 274.089 168.34 274.195 168.27L284.215 161.669C284.276 161.628 284.356 161.615 284.431 161.633C284.506 161.649 284.566 161.694 284.594 161.755L288.748 170.689C288.796 170.793 288.732 170.909 288.607 170.947C288.579 170.954 288.549 170.959 288.521 170.959Z" fill="#AEB3CC"/>
<path d="M237.013 190.093C236.935 190.093 236.857 190.061 236.81 190.004L232.523 184.799L232.451 189.029C232.448 189.141 232.329 189.218 232.205 189.227C232.069 189.224 231.961 189.134 231.964 189.025L232.044 184.158C232.047 184.07 232.116 183.995 232.219 183.97C232.321 183.945 232.432 183.977 232.49 184.049L237.215 189.784C237.29 189.875 237.262 190 237.148 190.063C237.107 190.081 237.06 190.093 237.013 190.093Z" fill="#000F4E"/>
<path d="M144.142 123.422C144.205 123.381 144.244 123.318 144.239 123.248L143.759 116.871L147.019 120.249C147.105 120.337 147.26 120.339 147.368 120.283C147.476 120.212 147.495 120.085 147.41 119.997L143.657 116.109C143.59 116.039 143.474 116.014 143.374 116.046C143.272 116.078 143.208 116.159 143.214 116.248L143.743 123.273C143.751 123.384 143.87 123.47 144.006 123.463C144.059 123.461 144.106 123.447 144.142 123.422Z" fill="#000F4E"/>
<path d="M293.646 99.7244C293.574 99.6994 293.519 99.645 293.502 99.577L292.123 93.4021L289.988 97.2535C289.932 97.3532 289.786 97.3872 289.664 97.3532C289.542 97.3079 289.487 97.19 289.542 97.088L292.001 92.6563C292.046 92.577 292.148 92.5294 292.253 92.5407C292.361 92.5521 292.444 92.6178 292.464 92.7039L293.984 99.5068C294.009 99.6156 293.92 99.7198 293.788 99.7402C293.738 99.7448 293.688 99.7402 293.646 99.7244Z" fill="#000F4E"/>
<path d="M258.879 171.591C258.876 171.591 258.874 171.591 258.871 171.591C258.735 171.586 258.63 171.496 258.635 171.384C258.638 171.294 259.045 162.272 262.571 156.5C262.632 156.401 262.779 156.362 262.898 156.412C263.02 156.462 263.067 156.582 263.006 156.679C259.527 162.376 259.126 171.31 259.12 171.398C259.12 171.507 259.012 171.591 258.879 171.591Z" fill="#000F4E"/>
<path d="M283.122 145.341C283.122 145.341 282.648 148.158 281.66 150.296C281.66 150.296 278.937 156.559 282.38 159.322C285.822 162.086 298.515 156.394 299.484 150.001C298.698 145.488 300.744 138.987 301.824 137.384C307.225 139.705 310.737 135.063 310.667 132.134C310.601 129.205 306.549 129.536 305.671 130.255C304.793 130.973 303.309 132.687 301.282 131.526C299.257 130.366 302.362 122.629 305.738 119.258C299.188 119.977 291.156 114.672 290.073 109.808C285.819 110.692 282.377 114.062 280.217 117.544C278.056 121.026 277.043 124.397 275.356 128.763C273.669 133.129 271.576 138.268 275.085 141.915C278.599 145.563 283.122 145.341 283.122 145.341Z" fill="#FF8F6E"/>
<path d="M293.036 128.274C292.773 129.006 292.17 129.504 291.685 129.387C291.203 129.271 291.023 128.584 291.286 127.852C291.549 127.12 292.153 126.621 292.638 126.739C293.119 126.855 293.3 127.541 293.036 128.274Z" fill="#1F0F0A"/>
<path d="M291.545 130.164C291.332 130.164 291.116 130.132 290.908 130.064C290.825 130.037 290.783 129.96 290.817 129.892C290.85 129.824 290.944 129.79 291.027 129.817C291.733 130.046 292.548 129.774 292.966 129.176C293.01 129.112 293.11 129.089 293.187 129.126C293.265 129.162 293.293 129.244 293.248 129.307C292.869 129.851 292.212 130.164 291.545 130.164Z" fill="#1F0F0A"/>
<path d="M283.17 125.234C282.907 125.966 282.303 126.464 281.818 126.347C281.336 126.231 281.156 125.544 281.419 124.812C281.682 124.08 282.286 123.581 282.771 123.699C283.253 123.815 283.43 124.501 283.17 125.234Z" fill="#1F0F0A"/>
<path d="M281.678 127.124C281.465 127.124 281.249 127.093 281.041 127.025C280.958 126.997 280.917 126.92 280.95 126.852C280.983 126.784 281.077 126.75 281.161 126.778C281.867 127.006 282.681 126.734 283.099 126.136C283.143 126.073 283.243 126.05 283.321 126.086C283.398 126.122 283.426 126.204 283.382 126.268C283.002 126.812 282.346 127.124 281.678 127.124Z" fill="#1F0F0A"/>
<path d="M282.32 132.891C282.284 132.891 282.248 132.884 282.215 132.868C279.213 131.488 278.146 129.325 278.479 128.743C278.653 128.437 279.138 128.471 279.874 128.525C280.633 128.58 281.672 128.652 282.954 128.45C285.114 128.11 286.48 125.955 286.696 122.536C286.701 122.439 286.815 122.364 286.923 122.368C287.042 122.373 287.133 122.457 287.128 122.554C286.901 126.149 285.411 128.425 283.037 128.797C281.694 129.008 280.578 128.929 279.838 128.876C279.429 128.847 278.919 128.811 278.872 128.892C278.717 129.164 279.456 131.193 282.428 132.56C282.533 132.608 282.569 132.717 282.511 132.8C282.467 132.859 282.395 132.891 282.32 132.891Z" fill="#1F0F0A"/>
<path d="M284.96 137.81C283.442 137.81 279.274 137.193 278.379 134.924C278.343 134.831 278.404 134.732 278.518 134.702C278.631 134.673 278.753 134.725 278.789 134.815C279.711 137.157 284.658 137.595 285.306 137.436C285.419 137.409 285.541 137.461 285.575 137.554C285.608 137.647 285.544 137.746 285.431 137.774C285.342 137.796 285.179 137.81 284.96 137.81Z" fill="#1F0F0A"/>
<path d="M281.792 138.606C280.604 138.606 279.211 138.148 278.798 137.361C278.751 137.271 278.801 137.166 278.911 137.128C279.019 137.089 279.147 137.13 279.197 137.221C279.573 137.933 281.03 138.329 282.105 138.239C282.221 138.229 282.329 138.3 282.343 138.397C282.354 138.495 282.268 138.581 282.149 138.592C282.03 138.601 281.911 138.606 281.792 138.606Z" fill="#C9B8B3"/>
<path d="M298.004 126.369C296.968 124.379 294.267 123.57 293.683 123.459C297.239 122.058 298.184 123.817 298.004 126.369Z" fill="#1F0F0A"/>
<path d="M295.575 122.794C294.788 122.758 293.683 123.458 293.683 123.458C293.819 122.481 294.855 122.445 295.575 122.794Z" fill="#1F0F0A"/>
<path d="M281.401 120.099C284.065 119.51 286.026 120.72 286.026 120.72C285.4 118.281 283.306 118.587 281.401 120.099Z" fill="#1F0F0A"/>
<path d="M285.46 119.208C286.017 119.72 286.042 120.72 286.042 120.72C286.662 119.818 286.289 119.385 285.46 119.208Z" fill="#1F0F0A"/>
<path d="M285.662 145.202C285.451 145.202 285.249 145.198 285.047 145.186C284.928 145.179 284.836 145.096 284.845 144.998C284.853 144.901 284.961 144.824 285.074 144.833C288.971 145.041 294.394 143.096 295.751 141.43C295.817 141.348 295.95 141.326 296.05 141.38C296.15 141.435 296.177 141.543 296.111 141.625C294.765 143.28 289.625 145.202 285.662 145.202Z" fill="#C9B8B3"/>
<path d="M300.697 133.525C299.819 133.525 299.224 133.163 299.216 133.158C299.122 133.099 299.102 132.988 299.174 132.911C299.246 132.834 299.382 132.818 299.476 132.877C299.52 132.904 300.42 133.441 301.614 133.013C301.182 132.945 300.708 132.775 300.312 132.528C299.673 132.129 299.393 131.608 299.54 131.098C299.567 131.002 299.684 130.946 299.8 130.966C299.916 130.989 299.988 131.084 299.961 131.179C299.814 131.68 300.282 132.063 300.576 132.245C301.21 132.641 302.035 132.78 302.348 132.639C302.445 132.594 302.57 132.621 302.63 132.696C302.691 132.773 302.672 132.875 302.586 132.931C301.897 133.387 301.243 133.525 300.697 133.525Z" fill="#1F0F0A"/>
<path d="M300.246 134.423C299.947 134.423 299.396 134.344 298.875 133.852C298.797 133.777 298.806 133.666 298.897 133.603C298.988 133.539 299.124 133.546 299.202 133.621C299.775 134.16 300.351 134.067 300.376 134.063C300.492 134.045 300.609 134.101 300.634 134.197C300.658 134.292 300.589 134.385 300.473 134.408C300.459 134.408 300.376 134.423 300.246 134.423Z" fill="#1F0F0A"/>
<path d="M309.792 133.097C309.085 132.052 308.097 131.83 307.382 131.83C307.377 131.83 307.368 131.83 307.363 131.83C305.729 131.839 303.965 132.997 303.267 134.067C303.211 134.153 303.25 134.26 303.355 134.307C303.389 134.321 303.422 134.328 303.458 134.328C303.535 134.328 303.61 134.294 303.649 134.235C303.973 133.741 304.541 133.224 305.216 132.834C306.291 132.718 307.008 132.997 307.183 133.593C307.385 134.278 306.776 135.255 305.546 135.613C305.432 135.645 305.374 135.747 305.416 135.84C305.446 135.912 305.529 135.958 305.618 135.958C305.643 135.958 305.668 135.955 305.69 135.946C307.186 135.509 307.847 134.341 307.601 133.509C307.424 132.906 306.837 132.544 305.986 132.471C306.438 132.299 306.906 132.185 307.366 132.183C308.249 132.172 308.925 132.544 309.412 133.269C309.47 133.355 309.601 133.385 309.706 133.339C309.814 133.292 309.85 133.183 309.792 133.097Z" fill="#C9B8B3"/>
<path d="M374.123 62.3033C373.486 61.3557 372.588 61.1562 371.943 61.1562C371.937 61.1562 371.932 61.1562 371.926 61.1562C370.447 61.1653 368.852 62.2126 368.221 63.1805C368.171 63.2576 368.207 63.3551 368.301 63.3959C368.332 63.4095 368.362 63.414 368.392 63.414C368.462 63.414 368.531 63.3823 368.564 63.3302C368.858 62.8813 369.373 62.4166 369.982 62.063C370.954 61.9587 371.602 62.2103 371.763 62.7521C371.946 63.3732 371.395 64.255 370.281 64.5815C370.179 64.6109 370.126 64.7016 370.162 64.7855C370.19 64.8512 370.265 64.892 370.345 64.892C370.367 64.892 370.389 64.8898 370.411 64.883C371.766 64.4885 372.364 63.4299 372.142 62.6773C371.982 62.1333 371.45 61.8023 370.68 61.7366C371.087 61.5802 371.511 61.4781 371.926 61.4759C372.727 61.4668 373.336 61.8023 373.779 62.4574C373.832 62.5345 373.951 62.5617 374.045 62.5209C374.139 62.4778 374.175 62.3803 374.123 62.3033Z" fill="#C9B8B3"/>
<path d="M307.875 118.782C307.806 118.782 307.743 118.746 307.72 118.689C307.693 118.619 307.74 118.544 307.826 118.522C311.603 117.527 313.824 117.894 313.919 117.91C314.007 117.926 314.063 117.996 314.043 118.066C314.024 118.139 313.938 118.184 313.852 118.168C313.83 118.164 311.614 117.803 307.925 118.773C307.909 118.782 307.892 118.782 307.875 118.782Z" fill="#1F0F0A"/>
<path d="M360.728 55.0767C357.429 52.4766 354.374 52.9754 354.374 52.9754C355.352 51.7263 357.244 50.8763 360.728 55.0767Z" fill="#1F0F0A"/>
<path d="M355.188 59.1028C355.695 59.1028 356.105 58.5598 356.105 57.89C356.105 57.2202 355.695 56.6772 355.188 56.6772C354.682 56.6772 354.272 57.2202 354.272 57.89C354.272 58.5598 354.682 59.1028 355.188 59.1028Z" fill="#1F0F0A"/>
<path d="M347.009 55.9633C347.009 56.632 346.599 57.176 346.092 57.176C345.586 57.176 345.176 56.632 345.176 55.9633C345.176 55.2945 345.586 54.7505 346.092 54.7505C346.599 54.7528 347.009 55.2945 347.009 55.9633Z" fill="#1F0F0A"/>
<path d="M345.272 62.7705C345.245 62.7705 345.217 62.7659 345.189 62.7546C344.674 62.5574 343.287 61.5804 342.558 60.5671C342.42 60.3767 342.417 60.1477 342.547 59.9528C342.683 59.751 342.946 59.6218 343.231 59.615C346.283 59.5447 348.499 57.4388 348.499 54.6053C348.499 54.5169 348.588 54.4443 348.696 54.4443C348.804 54.4443 348.892 54.5169 348.892 54.6053C348.892 57.5703 346.463 59.8598 343.242 59.9346C343.093 59.9392 342.96 60.0026 342.891 60.1069C342.827 60.2021 342.83 60.3087 342.896 60.4039C343.575 61.3469 344.893 62.2854 345.356 62.4622C345.452 62.4985 345.497 62.5937 345.45 62.6753C345.417 62.7365 345.344 62.7705 345.272 62.7705Z" fill="#1F0F0A"/>
<path d="M349.453 66.8459C347.788 66.8459 346.268 66.3177 345.191 65.5493C345.11 65.4903 345.102 65.3906 345.171 65.3226C345.243 65.2546 345.365 65.25 345.448 65.3067C347.21 66.5625 350.237 67.1361 353.031 65.5946C353.12 65.5447 353.242 65.5651 353.303 65.6377C353.363 65.7102 353.339 65.81 353.25 65.8598C351.99 66.5557 350.683 66.8459 349.453 66.8459Z" fill="#1F0F0A"/>
<path d="M344.045 51.2253C347.039 50.7742 348.382 51.8759 348.382 51.8759C347.77 49.9264 346.244 50.076 344.045 51.2253Z" fill="#1F0F0A"/>
<path d="M367.769 68.342C368.85 67.9754 369.363 66.961 368.916 66.0761C368.468 65.1913 367.228 64.7711 366.147 65.1376C365.066 65.5041 364.553 66.5186 365.001 67.4034C365.448 68.2883 366.688 68.7085 367.769 68.342Z" fill="white"/>
<path d="M350.973 74.7896C350.881 74.7896 350.801 74.7397 350.782 74.6626C350.759 74.5765 350.826 74.4903 350.931 74.4722C357.517 73.2957 362.455 69.2562 362.502 69.2154C362.577 69.1519 362.702 69.1519 362.779 69.2131C362.857 69.2743 362.857 69.3763 362.782 69.4398C362.732 69.4806 357.716 73.5881 351.014 74.785C351 74.7873 350.987 74.7896 350.973 74.7896Z" fill="#C9B8B3"/>
<path d="M370.768 162.691C370.768 162.691 371.255 170.426 368.162 170.158C365.066 169.891 356.106 171.226 354.314 172.425C352.522 173.624 351.708 179.36 352.686 180.692C353.663 182.025 355.619 181.427 355.863 180.559C356.596 182.159 358.795 181.96 359.61 180.493C360.26 182.361 362.786 181.826 363.277 180.294C363.603 181.828 365.475 182.293 366.209 180.76C366.943 179.228 367.024 177.759 368.001 177.759C368.979 177.759 381.115 179.026 383.477 176.025C385.84 173.024 385.106 162.823 385.106 162.823L370.768 162.691Z" fill="#FF8F6E"/>
<path d="M355.599 179.253C355.594 179.253 355.588 179.253 355.58 179.253C355.472 179.244 355.394 179.167 355.403 179.078C355.405 179.051 355.713 176.349 356.139 174.513C356.159 174.427 356.261 174.368 356.366 174.386C356.472 174.402 356.544 174.486 356.522 174.572C356.101 176.395 355.793 179.081 355.79 179.108C355.785 179.19 355.699 179.253 355.599 179.253Z" fill="#C9B8B3"/>
<path d="M359.865 179.719C359.859 179.719 359.854 179.719 359.845 179.719C359.737 179.71 359.66 179.633 359.668 179.545C359.671 179.518 359.978 176.816 360.405 174.979C360.424 174.893 360.527 174.834 360.632 174.852C360.737 174.868 360.809 174.952 360.787 175.038C360.366 176.861 360.059 179.547 360.056 179.574C360.05 179.656 359.965 179.719 359.865 179.719Z" fill="#C9B8B3"/>
<path d="M363.565 179.318C363.559 179.318 363.554 179.318 363.545 179.318C363.437 179.309 363.36 179.232 363.368 179.144C363.371 179.117 363.468 177.435 363.892 175.598C363.911 175.512 364.013 175.453 364.119 175.472C364.224 175.487 364.296 175.571 364.274 175.657C363.853 177.48 363.759 179.146 363.756 179.173C363.748 179.257 363.664 179.318 363.565 179.318Z" fill="#C9B8B3"/>
<path d="M376.767 170.752C376.762 170.752 376.753 170.752 376.748 170.752C372.472 170.407 369.708 170.402 369.68 170.402C369.572 170.402 369.483 170.33 369.483 170.242C369.483 170.153 369.572 170.081 369.68 170.081C369.708 170.081 372.488 170.085 376.786 170.432C376.894 170.441 376.972 170.518 376.961 170.606C376.95 170.688 376.867 170.752 376.767 170.752Z" fill="#C9B8B3"/>
<path d="M356.611 173.048C356.42 173.048 356.24 173.023 356.082 172.971C355.783 172.871 355.603 172.676 355.558 172.413C355.544 172.325 355.619 172.246 355.727 172.234C355.827 172.223 355.932 172.284 355.946 172.373C355.971 172.52 356.062 172.62 356.231 172.676C356.661 172.821 357.478 172.656 358.018 172.316C358.103 172.261 358.225 172.275 358.292 172.345C358.358 172.416 358.342 172.515 358.256 172.57C357.824 172.84 357.173 173.048 356.611 173.048Z" fill="#C9B8B3"/>
<path d="M359.899 173.463C359.708 173.463 359.528 173.438 359.37 173.386C359.071 173.286 358.891 173.091 358.847 172.828C358.833 172.74 358.908 172.661 359.016 172.649C359.116 172.638 359.221 172.699 359.235 172.788C359.26 172.935 359.351 173.035 359.52 173.091C359.949 173.236 360.766 173.071 361.306 172.731C361.392 172.676 361.514 172.69 361.58 172.76C361.647 172.831 361.63 172.93 361.544 172.985C361.112 173.257 360.462 173.463 359.899 173.463Z" fill="#C9B8B3"/>
<path d="M363.24 173.998C363.049 173.998 362.869 173.973 362.711 173.921C362.412 173.821 362.232 173.626 362.187 173.364C362.173 173.275 362.248 173.196 362.356 173.184C362.456 173.173 362.561 173.234 362.575 173.323C362.6 173.47 362.691 173.57 362.86 173.626C363.29 173.772 364.107 173.606 364.647 173.266C364.732 173.212 364.854 173.225 364.921 173.296C364.987 173.366 364.971 173.466 364.885 173.52C364.453 173.79 363.802 173.998 363.24 173.998Z" fill="#C9B8B3"/>
<path d="M366.837 174.814C366.646 174.814 366.466 174.789 366.308 174.737C366.009 174.637 365.829 174.442 365.785 174.179C365.771 174.091 365.846 174.012 365.954 174C366.053 173.989 366.159 174.05 366.172 174.139C366.197 174.286 366.289 174.386 366.458 174.442C366.887 174.587 367.704 174.422 368.244 174.082C368.33 174.028 368.452 174.041 368.518 174.111C368.585 174.182 368.568 174.281 368.482 174.336C368.05 174.606 367.399 174.814 366.837 174.814Z" fill="#C9B8B3"/>
<path d="M325.636 104.215C325.594 104.215 325.55 104.206 325.511 104.188C325.395 104.131 325.356 104.009 325.425 103.914C325.469 103.853 329.964 97.6188 330.441 92.0015C330.449 91.8904 330.557 91.8111 330.701 91.8156C330.837 91.8224 330.936 91.9199 330.928 92.0287C330.441 97.7434 325.89 104.057 325.843 104.118C325.799 104.181 325.719 104.215 325.636 104.215Z" fill="#000F4E"/>
<path d="M371.58 97.4144C371.574 97.4144 371.569 97.4144 371.563 97.4144C371.428 97.4076 371.325 97.3124 371.334 97.2013C371.345 97.0743 372.433 84.3732 382.215 80.1024C382.334 80.0503 382.481 80.0866 382.545 80.184C382.608 80.2815 382.564 80.4016 382.445 80.4538C372.904 84.618 371.829 97.0993 371.821 97.2262C371.815 97.3328 371.707 97.4144 371.58 97.4144Z" fill="#000F4E"/>
<path d="M367.85 139.986C367.718 139.986 367.609 139.9 367.607 139.791L367.119 121.389C367.117 121.278 367.225 121.187 367.357 121.185C367.49 121.194 367.604 121.271 367.607 121.38L368.094 139.782C368.097 139.893 367.989 139.984 367.856 139.986C367.853 139.986 367.853 139.986 367.85 139.986Z" fill="#000F4E"/>
<path d="M205.652 62.0905V101.137C205.652 102.69 207.192 103.95 209.089 103.95H224.925C224.43 102.928 224.208 101.792 224.369 100.595C224.826 97.1451 228.393 94.4249 232.63 94.3025C237.535 94.1597 241.567 97.374 241.567 101.357C241.567 102.273 241.349 103.145 240.958 103.948H256.794C258.691 103.948 260.231 102.688 260.231 101.135V62.0905C260.231 60.5377 258.691 59.2773 256.794 59.2773H209.089C207.189 59.2773 205.652 60.5354 205.652 62.0905Z" fill="#FFD35A"/>
<path d="M211.098 73.7466C209.655 73.7466 208.295 74.0436 207.107 74.565V62.0066C207.107 60.4992 205.614 59.2773 203.773 59.2773H157.494C155.652 59.2773 154.159 60.4992 154.159 62.0066V99.888C154.159 101.395 155.652 102.617 157.494 102.617H203.775C205.617 102.617 207.11 101.395 207.11 99.888V86.7969C208.301 87.3183 209.658 87.6153 211.101 87.6153C215.778 87.6153 219.573 84.5097 219.573 80.681C219.57 76.85 215.778 73.7466 211.098 73.7466Z" fill="#FD4C20"/>
<path d="M171.837 99.115C171.837 100.296 172.2 101.409 172.837 102.381H157.494C155.652 102.381 154.159 103.603 154.159 105.111V142.992C154.159 144.5 155.652 145.721 157.494 145.721H203.775C205.617 145.721 207.11 144.5 207.11 142.992V105.111C207.11 103.603 205.617 102.381 203.775 102.381H187.781C188.418 101.407 188.781 100.296 188.781 99.115C188.781 95.2863 184.987 92.1807 180.309 92.1807C175.631 92.1807 171.837 95.2863 171.837 99.115Z" fill="#FFD35A"/>
<path d="M241.789 59.1769C241.789 59.1769 242.276 68.0789 240.811 68.9788C239.346 69.8787 237.756 68.9788 237.391 67.9791C236.047 70.0805 233.236 69.4798 232.871 68.1786C231.649 70.178 228.716 68.7793 228.473 67.8794C227.617 69.9807 225.174 68.6796 224.562 67.4804C223.95 66.2812 223.925 58.753 224.075 57.6785C224.377 55.4752 241.423 53.5755 241.789 59.1769Z" fill="#FF8F6E"/>
<path d="M239.37 58.8146C238.869 58.8146 238.248 58.6106 237.761 58.0235C237.686 57.9328 237.714 57.8081 237.828 57.7446C237.938 57.6834 238.091 57.7061 238.168 57.799C238.614 58.3386 239.176 58.4632 239.553 58.3998C239.835 58.3522 240.04 58.2025 240.087 58.0031C240.112 57.8942 240.243 57.824 240.375 57.8466C240.508 57.8693 240.594 57.9736 240.567 58.0824C240.478 58.4406 240.126 58.7126 239.647 58.7919C239.561 58.8055 239.467 58.8146 239.37 58.8146Z" fill="#C9B8B3"/>
<path d="M235.413 58.6466C234.912 58.6466 234.292 58.4426 233.804 57.8555C233.729 57.7648 233.757 57.6401 233.871 57.5767C233.981 57.5155 234.134 57.5381 234.211 57.6311C234.657 58.1706 235.219 58.2953 235.596 58.2318C235.879 58.1842 236.083 58.0346 236.131 57.8351C236.155 57.7263 236.286 57.656 236.419 57.6787C236.552 57.7013 236.637 57.8056 236.61 57.9144C236.521 58.2726 236.169 58.5446 235.69 58.624C235.604 58.6398 235.513 58.6466 235.413 58.6466Z" fill="#C9B8B3"/>
<path d="M230.788 58.7809C230.287 58.7809 229.667 58.5769 229.179 57.9898C229.104 57.8991 229.132 57.7744 229.246 57.7109C229.356 57.6497 229.509 57.6724 229.586 57.7654C230.032 58.3049 230.594 58.4295 230.971 58.3661C231.254 58.3185 231.459 58.1689 231.506 57.9694C231.531 57.8606 231.661 57.7903 231.794 57.813C231.927 57.8356 232.012 57.9399 231.985 58.0487C231.896 58.4069 231.544 58.6789 231.065 58.7582C230.979 58.7741 230.888 58.7809 230.788 58.7809Z" fill="#C9B8B3"/>
<path d="M226.677 58.8986C226.176 58.8986 225.555 58.6946 225.068 58.1074C224.993 58.0168 225.021 57.8921 225.134 57.8286C225.245 57.7674 225.397 57.7901 225.475 57.883C225.921 58.4225 226.483 58.5472 226.86 58.4837C227.142 58.4361 227.347 58.2865 227.394 58.087C227.419 57.9782 227.549 57.908 227.682 57.9306C227.815 57.9533 227.901 58.0576 227.873 58.1664C227.785 58.5245 227.433 58.7966 226.954 58.8759C226.868 58.8895 226.777 58.8986 226.677 58.8986Z" fill="#C9B8B3"/>
<path d="M237.449 67.1769C237.446 67.1769 237.446 67.1769 237.449 67.1769C237.311 67.1746 237.203 67.0862 237.205 66.9752L237.286 60.3741C237.286 60.263 237.388 60.1678 237.532 60.1769C237.668 60.1791 237.776 60.2675 237.773 60.3786L237.693 66.9797C237.69 67.0885 237.582 67.1769 237.449 67.1769Z" fill="#C9B8B3"/>
<path d="M232.876 67.1115C232.873 67.1115 232.873 67.1115 232.876 67.1115C232.737 67.1092 232.629 67.0208 232.632 66.9097L232.712 60.3087C232.712 60.1976 232.815 60.1024 232.959 60.1114C233.094 60.1137 233.202 60.2021 233.2 60.3132L233.119 66.9143C233.116 67.0231 233.008 67.1115 232.876 67.1115Z" fill="#C9B8B3"/>
<path d="M228.507 67.0117C228.369 67.0095 228.261 66.9233 228.264 66.819L228.344 60.5013C228.344 60.3948 228.447 60.3041 228.591 60.3109C228.726 60.3132 228.834 60.3993 228.831 60.5036L228.751 66.8213C228.751 66.9278 228.64 67.0117 228.507 67.0117Z" fill="#C9B8B3"/>
<path d="M177.893 149.384C174.041 149.384 171.634 148.919 170.978 148.019C170.734 147.684 170.756 147.303 171.042 146.945C171.9 145.868 176.182 145.943 180.713 146.022C181.419 146.036 182.12 146.047 182.795 146.054C182.931 146.056 183.039 146.147 183.036 146.256C183.034 146.365 182.926 146.453 182.793 146.453H182.79C182.114 146.446 181.411 146.433 180.702 146.421C176.896 146.355 172.16 146.272 171.449 147.162C171.266 147.391 171.249 147.611 171.396 147.813C171.684 148.208 173.337 149.441 182.527 148.804C182.668 148.795 182.779 148.876 182.79 148.985C182.801 149.096 182.701 149.191 182.568 149.2C180.835 149.325 179.273 149.384 177.893 149.384Z" fill="#C9B8B3"/>
<path d="M85.0001 187.692C85.0001 187.692 85.2438 192.992 87.0773 193.692C88.9107 194.393 94.1644 194.492 94.1644 195.993C94.1644 197.494 91.9654 201.393 92.0873 204.693C92.331 205.294 89.2762 205.493 89.2762 205.493C89.2762 205.493 89.7637 212.095 88.0549 212.494C86.3433 212.892 84.3881 212.892 83.2886 211.893C80.8458 213.092 78.6441 212.394 78.2785 211.793C76.9353 213.493 73.2685 211.893 72.9029 210.993C71.6815 211.993 68.383 211.093 67.771 208.993C67.1589 206.892 66.6715 199.792 68.0147 194.592C69.3579 189.392 69.3579 188.191 69.3579 188.191L85.0001 187.692Z" fill="#FF8F6E"/>
<path d="M89.1765 204.796C89.0575 204.796 88.9522 204.723 88.9356 204.623C88.9217 204.551 88.6365 202.789 89.7941 198.897C89.8274 198.791 89.9603 198.725 90.0905 198.75C90.2206 198.777 90.301 198.884 90.2705 198.992C89.1378 202.796 89.4175 204.551 89.4202 204.569C89.4396 204.678 89.3455 204.78 89.2125 204.796C89.1987 204.796 89.1876 204.796 89.1765 204.796Z" fill="#C9B8B3"/>
<path d="M83.2509 211.297C83.129 211.297 83.0266 211.225 83.0099 211.123C82.4671 207.806 82.2179 205.784 82.2151 205.766C82.2012 205.655 82.3009 205.557 82.4339 205.546C82.5724 205.537 82.6887 205.616 82.7025 205.725C82.7053 205.746 82.9518 207.761 83.4946 211.068C83.5112 211.177 83.4198 211.279 83.2841 211.293C83.2731 211.295 83.262 211.297 83.2509 211.297Z" fill="#C9B8B3"/>
<path d="M78.1039 211.297C77.9875 211.297 77.8851 211.229 77.8629 211.131C77.1345 207.704 77.1262 206.448 77.1262 206.396C77.1262 206.285 77.2342 206.196 77.3699 206.196C77.5056 206.196 77.6137 206.285 77.6137 206.396C77.6137 206.409 77.6247 207.679 78.342 211.063C78.3642 211.172 78.2756 211.276 78.1426 211.294C78.1316 211.294 78.1177 211.297 78.1039 211.297Z" fill="#C9B8B3"/>
<path d="M72.8442 210.547C72.7279 210.547 72.6254 210.479 72.6033 210.383C72.1186 208.198 71.9912 206.825 71.9884 206.813C71.9774 206.702 72.0798 206.607 72.2128 206.598C72.3512 206.589 72.4648 206.673 72.4759 206.781C72.4759 206.795 72.6033 208.148 73.0824 210.311C73.1073 210.42 73.0187 210.524 72.8858 210.544C72.8747 210.544 72.8581 210.547 72.8442 210.547Z" fill="#C9B8B3"/>
<path d="M85.4373 204.301C84.8197 204.301 84.2243 204.016 83.8448 203.526C83.7728 203.433 83.8061 203.308 83.9196 203.249C84.0332 203.191 84.1855 203.218 84.2575 203.311C84.576 203.723 85.0883 203.945 85.5869 203.891C86.1103 203.834 86.534 203.476 86.7501 202.907C86.7888 202.803 86.9245 202.744 87.0547 202.776C87.1849 202.807 87.2569 202.921 87.2153 203.025C86.9412 203.748 86.3706 204.208 85.6506 204.285C85.5813 204.297 85.5093 204.301 85.4373 204.301Z" fill="#C9B8B3"/>
<path d="M79.733 204.526C79.1154 204.526 78.5199 204.24 78.1405 203.751C78.0685 203.658 78.1017 203.533 78.2153 203.474C78.3288 203.415 78.4811 203.442 78.5532 203.535C78.8716 203.948 79.384 204.17 79.8825 204.116C80.406 204.059 80.8297 203.701 81.0457 203.132C81.0845 203.027 81.2202 202.969 81.3504 203C81.4805 203.032 81.5525 203.145 81.511 203.25C81.2368 203.973 80.6663 204.433 79.9462 204.51C79.8742 204.524 79.805 204.526 79.733 204.526Z" fill="#C9B8B3"/>
<path d="M74.3885 204.877C73.7709 204.877 73.1755 204.591 72.7961 204.102C72.7241 204.009 72.7573 203.884 72.8709 203.825C72.9844 203.766 73.1367 203.793 73.2087 203.886C73.5272 204.299 74.0396 204.521 74.5381 204.467C75.0615 204.41 75.4853 204.052 75.7013 203.483C75.7401 203.379 75.8758 203.32 76.0059 203.351C76.1361 203.383 76.2081 203.496 76.1666 203.601C75.8924 204.324 75.3219 204.784 74.6018 204.861C74.5298 204.872 74.4578 204.877 74.3885 204.877Z" fill="#C9B8B3"/>
<path d="M69.6608 205.376C69.0432 205.376 68.4478 205.09 68.0684 204.601C67.9963 204.508 68.0296 204.383 68.1431 204.324C68.2567 204.265 68.409 204.292 68.481 204.385C68.7995 204.798 69.3119 205.02 69.8104 204.966C70.3338 204.909 70.7575 204.551 70.9736 203.982C71.0123 203.878 71.148 203.819 71.2782 203.85C71.4084 203.882 71.4804 203.995 71.4388 204.1C71.1647 204.823 70.5941 205.283 69.8741 205.36C69.8048 205.374 69.7328 205.376 69.6608 205.376Z" fill="#C9B8B3"/>
<path d="M81.1735 102.529C81.035 102.529 80.9243 102.438 80.9243 102.325C80.9243 98.1378 77.3599 89.0205 66.3372 87.5652C66.2015 87.547 66.1101 87.4428 66.1323 87.3317C66.1544 87.2206 66.2791 87.1435 66.4175 87.1639C77.7559 88.66 81.4228 98.0244 81.4228 102.325C81.4228 102.438 81.312 102.529 81.1735 102.529Z" fill="#000F4E"/>
<path d="M83.8067 179.262C83.6876 179.262 83.5851 179.194 83.563 179.094C83.2639 177.747 76.2238 146.107 76.1019 145.297C75.9773 144.481 79.4364 120.321 79.8325 117.569C79.8491 117.458 79.9737 117.377 80.1094 117.39C80.2451 117.404 80.3448 117.503 80.3282 117.617C79.2592 125.061 76.509 144.538 76.5977 145.25C76.7195 146.048 83.9812 178.695 84.056 179.024C84.0809 179.135 83.9923 179.239 83.8566 179.259C83.8344 179.259 83.8206 179.262 83.8067 179.262Z" fill="#000F4E"/>
<path d="M123.113 129.803C123.11 129.803 123.107 129.803 123.105 129.803C122.966 129.799 122.861 129.706 122.864 129.593C122.875 129.352 123.847 105.537 122.867 100.425C122.844 100.314 122.939 100.21 123.074 100.192C123.213 100.176 123.337 100.251 123.359 100.362C124.345 105.512 123.373 129.366 123.362 129.606C123.357 129.717 123.246 129.803 123.113 129.803Z" fill="#000F4E"/>
<path d="M149.554 89.0979C149.429 87.876 149.18 74.2409 150.174 72.5091C151.168 70.7795 153.78 69.5576 153.78 69.5576L153.904 71.5932C156.245 71.8993 163.168 71.5706 166.445 71.3915C167.564 71.3303 168.508 72.092 168.417 73.0078C168.278 74.4132 167.303 76 164.099 76.2766C159.374 76.6846 155.519 76.2766 155.148 80.5518C154.774 84.8271 153.904 89.2022 153.904 89.2022L149.554 89.0979Z" fill="#FF8F6E"/>
<path d="M82.0794 59.3811C82.0545 59.3561 82.0157 59.2994 81.9575 59.2224C80.2044 56.8558 78.1134 56.0578 75.7511 56.8535C75.6153 56.8989 75.5489 57.0281 75.6043 57.1391C75.6597 57.2502 75.8175 57.3046 75.9532 57.2593C77.5512 56.722 78.8003 57.0915 79.7253 57.69C78.9692 57.6832 78.2298 57.9665 77.8282 58.4607C77.3546 59.041 77.4737 59.746 78.1467 60.3445C78.1993 60.3921 78.2713 60.4147 78.3433 60.4147C78.407 60.4147 78.4735 60.3966 78.5233 60.3581C78.6313 60.2765 78.6396 60.1382 78.5399 60.0498C78.0387 59.6032 77.9417 59.1113 78.2741 58.7033C78.623 58.2748 79.4594 57.9597 80.3263 58.2136C80.3568 58.2227 80.39 58.225 80.4204 58.225C80.9328 58.6874 81.2928 59.1702 81.5006 59.4513C81.5753 59.5533 81.6307 59.6236 81.6612 59.6576C81.7138 59.712 81.7914 59.7392 81.8689 59.7392C81.9271 59.7392 81.9852 59.7234 82.0351 59.6916C82.1514 59.6145 82.1708 59.4763 82.0794 59.3811Z" fill="#C9B8B3"/>
<path d="M94.3419 51.527C96.6157 49.6297 100.806 48.8635 101.34 48.8635C98.9338 47.585 95.5467 48.1698 94.3419 51.527Z" fill="#1F0F0A"/>
<path d="M99.2753 48.0047C100.657 48.2972 101.327 48.8616 101.327 48.8616C101.258 48.0614 100.322 47.7146 99.2753 48.0047Z" fill="#1F0F0A"/>
<path d="M108.063 48.8998C111.14 49.5209 112.253 50.7972 112.253 50.7972C111.719 48.315 109.179 48.4623 108.063 48.8998Z" fill="#1F0F0A"/>
<path d="M109.6 48.4441C108.73 48.4803 108.063 48.8997 108.063 48.8997C108.126 48.1698 109.176 48.2967 109.6 48.4441Z" fill="#1F0F0A"/>
<path d="M103.289 67.2203C102.1 67.2203 100.799 66.7828 100.009 66.0484C99.9126 65.9577 99.9236 65.8194 100.034 65.7401C100.145 65.6607 100.314 65.6698 100.411 65.7605C101.322 66.6083 103.086 67.014 104.261 66.6491C104.399 66.606 104.554 66.6627 104.607 66.776C104.66 66.8894 104.59 67.0163 104.452 67.0594C104.097 67.1682 103.701 67.2203 103.289 67.2203Z" fill="#1F0F0A"/>
<path d="M86.3812 68.7865C86.3175 68.7865 86.2538 68.7684 86.2012 68.7298C86.0821 68.6414 83.2738 66.5265 82.3737 63.0672C82.3432 62.9494 82.4346 62.8338 82.5787 62.8066C82.7227 62.7816 82.8639 62.8564 82.8971 62.9743C83.7612 66.2975 86.5335 68.383 86.5612 68.4034C86.672 68.485 86.6803 68.6233 86.5806 68.7117C86.5252 68.7638 86.4532 68.7865 86.3812 68.7865Z" fill="#C9B8B3"/>
<path d="M100.744 74.3904C95.1164 74.3904 92.3524 72.5429 92.2278 72.4568C92.1142 72.3797 92.1004 72.2414 92.1945 72.1485C92.2887 72.0555 92.4576 72.0442 92.5712 72.1213C92.6044 72.144 95.8835 74.3224 102.456 73.8962C102.605 73.8849 102.733 73.9778 102.744 74.098C102.755 74.2181 102.644 74.3247 102.497 74.3337C101.885 74.3745 101.298 74.3904 100.744 74.3904Z" fill="#C9B8B3"/>
<path d="M97.9922 55.7679C97.9589 56.5885 98.3716 57.2641 98.9144 57.2777C99.4545 57.2913 99.9198 56.6384 99.953 55.8201C99.9862 54.9995 99.5736 54.3239 99.0307 54.3103C98.4879 54.2945 98.0254 54.9473 97.9922 55.7679Z" fill="#1F0F0A"/>
<path d="M98.7107 58.1123C98.9295 58.1712 99.1622 58.1984 99.4031 58.1871C99.5001 58.1825 99.5721 58.1145 99.5665 58.0375C99.561 57.9581 99.4779 57.8992 99.3837 57.9037C98.5695 57.9423 97.8467 57.4413 97.6666 56.7136C97.6473 56.6366 97.5559 56.5867 97.4617 56.6026C97.3675 56.6184 97.3066 56.6932 97.326 56.7703C97.4838 57.4254 98.0267 57.9264 98.7107 58.1123Z" fill="#1F0F0A"/>
<path d="M108.167 55.4461C108.134 56.2667 108.547 56.9423 109.09 56.9559C109.63 56.9695 110.095 56.3166 110.128 55.4983C110.161 54.6777 109.749 54.0022 109.206 53.9886C108.666 53.9727 108.201 54.6255 108.167 55.4461Z" fill="#1F0F0A"/>
<path d="M108.937 57.7876C109.156 57.8465 109.389 57.8737 109.63 57.8624C109.726 57.8578 109.798 57.7898 109.793 57.7128C109.787 57.6334 109.704 57.5745 109.61 57.579C108.796 57.6176 108.073 57.1166 107.893 56.3889C107.874 56.3118 107.782 56.262 107.688 56.2778C107.594 56.2937 107.533 56.3685 107.552 56.4456C107.713 57.103 108.253 57.604 108.937 57.7876Z" fill="#1F0F0A"/>
<path d="M96.9322 62.6799C93.0659 62.6799 89.9225 60.1047 89.9225 56.9425C89.9225 53.778 93.0687 51.2051 96.9322 51.2051C100.798 51.2051 103.942 53.778 103.942 56.9425C103.942 60.1047 100.798 62.6799 96.9322 62.6799ZM96.9322 51.6335C93.3567 51.6335 90.446 54.0137 90.446 56.9402C90.446 59.8667 93.354 62.2492 96.9322 62.2492C100.508 62.2492 103.418 59.869 103.418 56.9402C103.418 54.016 100.508 51.6335 96.9322 51.6335Z" fill="#1F0F0A"/>
<path d="M106.711 57.8743C106.553 57.43 106.47 56.9608 106.47 56.4757C106.47 53.7078 109.223 51.4546 112.605 51.4546C115.986 51.4546 118.739 53.7078 118.739 56.4757C118.739 59.2435 115.986 61.4967 112.605 61.4967C112.161 61.4967 111.729 61.4582 111.314 61.3857L111.53 61.0366C111.879 61.091 112.236 61.1204 112.605 61.1204C115.734 61.1204 118.279 59.0372 118.279 56.4757C118.279 53.9141 115.734 51.8309 112.605 51.8309C109.475 51.8309 106.93 53.9141 106.93 56.4757C106.93 57.0877 107.077 57.6748 107.34 58.2098L106.711 57.8743Z" fill="#1F0F0A"/>
<path d="M106.48 63.0948C106.336 63.0948 106.217 62.9996 106.211 62.8795C106.209 62.7593 106.325 62.6596 106.475 62.6551C108.424 62.6233 110.814 61.5103 111.216 61.1544C111.053 61.0184 110.568 60.7486 110.136 60.5083C109.131 59.9507 107.751 59.1845 107.023 58.3707C105.766 56.9607 105.854 56.4121 106.12 54.7868C106.139 54.6667 106.278 54.5624 106.425 54.5783C106.572 54.5941 106.677 54.6848 106.657 54.8049L106.652 54.8458C106.394 56.4235 106.325 56.8474 107.458 58.1146C108.131 58.8694 109.463 59.6084 110.438 60.1502C111.49 60.735 111.823 60.9322 111.789 61.1884C111.715 61.746 108.607 63.0631 106.491 63.0994C106.483 63.0948 106.48 63.0948 106.48 63.0948Z" fill="#1F0F0A"/>
<path d="M294.744 41.237L255.603 23.7369L256.071 23.0365L294.481 40.2079L327.461 5.27344L328.233 5.76308L294.744 41.237Z" fill="#85B5FF"/>
<path d="M257.463 26.5873C259.624 25.8548 260.65 23.8272 259.755 22.0586C258.86 20.2901 256.383 19.4503 254.222 20.1828C252.061 20.9154 251.035 22.943 251.93 24.7115C252.825 26.4801 255.302 27.3199 257.463 26.5873Z" fill="#85B5FF"/>
<path d="M294.577 44.1889C296.916 44.1889 298.812 42.6371 298.812 40.7229C298.812 38.8086 296.916 37.2568 294.577 37.2568C292.238 37.2568 290.343 38.8086 290.343 40.7229C290.343 42.6371 292.238 44.1889 294.577 44.1889Z" fill="#85B5FF"/>
<path d="M329.461 8.71624C331.621 7.98366 332.647 5.9561 331.752 4.18755C330.857 2.41899 328.38 1.57916 326.219 2.31174C324.059 3.04431 323.033 5.07188 323.928 6.84043C324.823 8.60899 327.3 9.44881 329.461 8.71624Z" fill="#85B5FF"/>
<path d="M190.726 30.5536L183.554 36.4233L185.109 37.696L192.281 31.8263L190.726 30.5536Z" fill="#000F4E"/>
<path d="M185.109 30.553L183.554 31.8257L190.726 37.6955L192.281 36.4228L185.109 30.553Z" fill="#000F4E"/>
<path d="M3.14279 79.3591C4.87851 79.3591 6.28559 78.138 6.28559 76.6317C6.28559 75.1254 4.87851 73.9043 3.14279 73.9043C1.40707 73.9043 0 75.1254 0 76.6317C0 78.138 1.40707 79.3591 3.14279 79.3591Z" fill="#85B5FF"/>
<path d="M21.6982 76.6317C21.6982 78.1366 20.2895 79.3591 18.5554 79.3591C16.8213 79.3591 15.4126 78.1366 15.4126 76.6317C15.4126 75.1268 16.8213 73.9043 18.5554 73.9043C20.2895 73.9001 21.6982 75.1226 21.6982 76.6317Z" fill="#85B5FF"/>
<path d="M36.3003 76.6317C36.3003 78.1366 34.8916 79.3591 33.1575 79.3591C31.4234 79.3591 30.0147 78.1366 30.0147 76.6317C30.0147 75.1268 31.4234 73.9043 33.1575 73.9043C34.8916 73.9001 36.3003 75.1226 36.3003 76.6317Z" fill="#85B5FF"/>
<path d="M50 76.6317C50 78.1366 48.5913 79.3591 46.8572 79.3591C45.123 79.3591 43.7144 78.1366 43.7144 76.6317C43.7144 75.1268 45.123 73.9043 46.8572 73.9043C48.5913 73.9001 50 75.1226 50 76.6317Z" fill="#85B5FF"/>
<path d="M3.14279 67.4548C4.87851 67.4548 6.28559 66.2337 6.28559 64.7274C6.28559 63.2211 4.87851 62 3.14279 62C1.40707 62 0 63.2211 0 64.7274C0 66.2337 1.40707 67.4548 3.14279 67.4548Z" fill="#85B5FF"/>
<path d="M21.6982 64.7274C21.6982 66.2323 20.2895 67.4548 18.5554 67.4548C16.8213 67.4548 15.4126 66.2323 15.4126 64.7274C15.4126 63.2225 16.8213 62 18.5554 62C20.2895 62 21.6982 63.2225 21.6982 64.7274Z" fill="#85B5FF"/>
<path d="M36.3003 64.7274C36.3003 66.2323 34.8916 67.4548 33.1575 67.4548C31.4234 67.4548 30.0147 66.2323 30.0147 64.7274C30.0147 63.2225 31.4234 62 33.1575 62C34.8916 62 36.3003 63.2225 36.3003 64.7274Z" fill="#85B5FF"/>
<path d="M50 64.7274C50 66.2323 48.5913 67.4548 46.8572 67.4548C45.123 67.4548 43.7144 66.2323 43.7144 64.7274C43.7144 63.2225 45.123 62 46.8572 62C48.5913 62 50 63.2225 50 64.7274Z" fill="#85B5FF"/>
<path d="M6.28559 90.0194C6.28559 91.5243 4.87691 92.7468 3.14279 92.7468C1.40867 92.7468 0 91.5243 0 90.0194C0 88.5145 1.40867 87.292 3.14279 87.292C4.88177 87.292 6.28559 88.5145 6.28559 90.0194Z" fill="#85B5FF"/>
<path d="M21.6982 90.0194C21.6982 91.5243 20.2895 92.7468 18.5554 92.7468C16.8213 92.7468 15.4126 91.5243 15.4126 90.0194C15.4126 88.5145 16.8213 87.292 18.5554 87.292C20.2895 87.292 21.6982 88.5145 21.6982 90.0194Z" fill="#85B5FF"/>
<path d="M36.3003 90.0194C36.3003 91.5243 34.8916 92.7468 33.1575 92.7468C31.4234 92.7468 30.0147 91.5243 30.0147 90.0194C30.0147 88.5145 31.4234 87.292 33.1575 87.292C34.8916 87.292 36.3003 88.5145 36.3003 90.0194Z" fill="#85B5FF"/>
<path d="M50 90.0194C50 91.5243 48.5913 92.7468 46.8572 92.7468C45.123 92.7468 43.7144 91.5243 43.7144 90.0194C43.7144 88.5145 45.123 87.292 46.8572 87.292C48.5913 87.292 50 88.5145 50 90.0194Z" fill="#85B5FF"/>
<path d="M438 138.821H424.316V150.021H438V138.821Z" fill="#66A2FE"/>
<path d="M41.9902 248.431L32.3141 240.511L22.638 248.431L32.3141 256.351L41.9902 248.431Z" fill="#8A6BFE"/>
<path d="M47.1658 262.035V254.702H38.2065V262.035H47.1658Z" fill="#B0B6E9"/>
<path d="M248.379 134.416C249.906 133.166 249.906 131.14 248.379 129.89C246.851 128.64 244.375 128.64 242.848 129.89C241.321 131.14 241.321 133.166 242.848 134.416C244.375 135.666 246.851 135.666 248.379 134.416Z" fill="#8A6BFE"/>
<path d="M255.958 132.787H246.918L251.438 124.386L255.958 132.787Z" fill="#FFD35A"/>
<path d="M431.92 275.596H422.877L427.4 267.195L431.92 275.596Z" fill="#8A6BFE"/>
<path d="M424.237 280.354C426.862 278.206 426.862 274.722 424.237 272.574C421.612 270.425 417.356 270.425 414.731 272.574C412.106 274.722 412.106 278.206 414.731 280.354C417.356 282.503 421.612 282.503 424.237 280.354Z" fill="#FFD35A"/>
<path d="M107.238 58.0098C107.141 58.0098 107.049 57.9622 107.011 57.8852C106.723 57.3026 106.191 56.9354 105.512 56.856C104.64 56.7517 103.657 57.1394 102.948 57.867C102.865 57.9532 102.709 57.969 102.604 57.8988C102.499 57.8308 102.482 57.7038 102.565 57.6177C103.38 56.7789 104.54 56.3324 105.581 56.4593C106.437 56.5613 107.107 57.0147 107.462 57.7356C107.512 57.8376 107.451 57.9554 107.326 57.9962C107.299 58.0053 107.268 58.0098 107.238 58.0098Z" fill="#1F0F0A"/>
<path d="M90.1169 57.0442C90.02 57.0442 87.1646 56.5613 81.6367 55.607C81.5038 55.5843 81.4207 55.4778 81.4484 55.3689C81.4761 55.2601 81.6062 55.1921 81.7392 55.2148C84.9933 55.777 89.9175 56.6202 90.1446 56.6452C90.2804 56.6452 90.3773 56.7336 90.3773 56.8447C90.3717 56.9535 90.2527 57.0442 90.1169 57.0442Z" fill="#1F0F0A"/>
</svg>
