<svg width="485" height="288" viewBox="0 0 485 288" fill="none" xmlns="http://www.w3.org/2000/svg">
<path d="M435.578 70.6157C435.285 69.4827 435.072 69.105 432.564 68.4554C422.081 65.9931 382.815 65.6456 371.478 65.5701C371.518 64.3361 371.013 63.1158 370.01 62.0201C365.769 59.5879 338.64 59.8749 332.878 59.2103C332.345 59.2103 332.398 59.2103 332.265 58.9383C330.904 57.05 330.558 50.7204 328.344 48.5149C324.209 44.3757 308.524 42.004 298.841 45.9165C293.845 45.0639 288.507 45.1061 283.556 46.0374C280.886 46.6526 278.486 47.5905 276.523 48.7855C274.561 49.9806 273.082 51.404 272.192 52.9562C270.684 55.8112 269.868 58.7688 269.764 61.7481C264.829 62.6696 239.115 63.7573 236.154 65.9327C235.423 66.5673 234.941 67.2834 234.74 68.0325C216.6 68.8029 218.548 68.9389 218.334 68.5763C211.559 56.627 187.151 44.6778 187.151 44.6778C186.591 44.3908 186.031 44.6778 184.803 44.9799C183.408 42.7347 181.621 40.5738 179.468 38.5295C179.52 38.0254 179.218 37.5301 178.629 37.1512C178.04 36.7723 177.21 36.5401 176.321 36.5052C178.722 34.8888 174.72 32.3056 169.225 34.4356C168.291 33.6652 167.304 32.9249 166.291 32.1092C166.894 31.891 167.442 31.6266 167.918 31.3237C168.478 30.7496 165.25 31.3237 184.43 29.2843C187.978 28.8764 203.636 27.0787 205.77 26.686C206.012 26.6693 206.237 26.6063 206.407 26.5073C206.576 26.4084 206.681 26.2795 206.704 26.1421C210.438 24.9789 206.277 18.6946 204.677 16.4589C211.319 12.8182 210.012 8.9056 204.383 7.77261C201.789 7.32297 199.037 7.25024 196.381 7.56112C193.857 5.09286 190.428 2.96011 186.324 1.30703C183.31 0.370425 180.989 0.944472 180.295 1.83576C179.602 2.72704 153.94 19.9636 153.62 20.0693C148.765 20.8548 141.589 22.577 139.215 25.0998C133.72 31.0064 144.39 38.2575 154.794 35.9613L156.688 35.6139C157.808 36.5354 159.195 37.5777 160.422 38.4992C160.189 38.7411 159.993 38.9938 159.835 39.2546C159.542 39.7984 157.595 41.2486 158.875 42.6989C160.155 44.1491 169.012 47.684 171.679 48.6357L171.119 48.8019C170.934 48.8455 170.786 48.9282 170.706 49.0325C170.626 49.1368 170.621 49.2545 170.692 49.3608C172.239 51.9289 180.589 64.2256 176.534 63.7422C170.612 63.0171 155.967 59.7692 138.148 56.476C128.358 54.6632 121.796 52.9108 113.073 51.7628C112.433 49.391 111.713 48.6357 111.073 46.7172C113.952 46.0221 116.39 44.8471 118.062 43.3484C119.022 42.442 117.902 42.8046 119.929 43.0312C120.587 43.1422 121.295 43.1052 121.907 42.9279C122.518 42.7507 122.985 42.4468 123.21 42.0795C125.611 42.5478 127.905 41.7774 127.371 40.1912C129.079 40.1912 132.226 40.1912 132.707 38.5144C133.427 36.4901 128.999 35.7801 127.878 35.0247C125.861 33.6051 124.405 31.9566 123.61 30.1907C120.943 25.3566 118.862 17.1991 114.167 14.1022C112.698 13.1817 110.89 12.4541 108.872 11.9703C106.854 11.4865 104.674 11.2582 102.484 11.3014C100.294 11.3445 98.147 11.6581 96.1932 12.2202C94.2395 12.7823 92.5261 13.5793 91.173 14.5554C89.4754 14.0109 87.6887 13.5606 85.838 13.211C83.57 13.0014 81.2499 13.0596 79.0236 13.382C76.7972 13.7043 74.7125 14.2839 72.9004 15.0842C64.1509 19.2989 68.659 26.55 62.7638 34.3298C60.9232 36.7469 51.7469 41.9586 58.4691 43.9376C59.1628 44.0588 59.9017 44.0707 60.6066 43.9723C61.3114 43.8738 61.9557 43.6686 62.4704 43.3786C62.5359 43.7693 62.7353 44.149 63.0572 44.4965C63.8572 45.0388 64.893 45.4537 66.0625 45.7C67.232 45.9464 68.4947 46.0158 69.7261 45.9014C70.4896 45.7584 71.1776 45.5091 71.7267 45.1763C71.9057 45.49 72.2278 45.7714 72.6603 45.9921C74.8477 46.974 77.5153 46.8834 79.8093 44.9195C80.1661 45.2047 80.6597 45.4261 81.2318 45.5573C81.8039 45.6885 82.4304 45.724 83.0371 45.6597V50.66C81.5699 50.7657 80.1028 50.8715 78.6356 51.0225C78.5123 51.0087 78.3854 51.0087 78.2622 51.0225C62.1658 52.3607 47.0799 56.2759 34.7813 62.3071C22.4655 68.2391 12.3707 75.5071 5.09169 83.6828C-1.33706 91.6892 -0.643509 94.6501 1.57054 100.3C2.93351 103.549 5.54782 106.588 9.22637 109.198C13.281 112.31 19.5497 116.056 28.6193 121.6C30.78 122.914 33.5009 124.621 35.795 125.921C34.5679 129.093 25.8985 148.263 26.4053 152.145C26.4053 152.538 27.0455 153.007 28.4326 153.339C32.9761 154.107 37.6723 154.549 42.4105 154.653C40.8367 186.724 44.8646 228.796 49.8529 260.021C49.6492 260.061 49.466 260.128 49.3194 260.217C48.4654 261.55 48.4654 263.009 49.3194 264.341C49.6662 264.749 50.3331 264.719 51.9869 264.795C51.9869 266.728 52.2804 268.964 52.4938 270.913C51.8957 271.176 51.358 271.481 50.8933 271.819C50.7065 272.061 50.6799 271.985 51.8802 275.943C51.0564 277.225 50.4229 278.544 49.9863 279.886C49.7375 280.888 49.5862 281.896 49.5328 282.907C49.5269 283.449 49.8259 283.979 50.3864 284.418C53.7637 285.912 57.5476 287.086 61.5901 287.893C66.1045 287.486 70.3682 286.448 73.9941 284.871C74.4444 284.643 74.7891 284.355 74.9983 284.034C75.2076 283.713 75.2749 283.368 75.1945 283.028C75.0326 280.556 74.288 278.107 72.9805 275.747C73.5136 274.454 73.7997 273.132 73.8341 271.804C73.674 271.517 73.3806 271.381 71.9401 270.852C72.2869 268.979 72.607 266.864 72.8471 265.006H76.1815C78.2888 264.931 77.6486 262.846 77.7553 261.184C77.7553 260.595 76.7417 260.384 75.7814 260.263L101.07 167.962C102.91 173.702 107.258 188.054 107.232 193.915C107.232 195.335 100.803 242.165 99.229 254.432C98.9756 254.465 98.7441 254.538 98.5621 254.643C97.6156 255.935 97.4194 257.363 98.0019 258.722C98.2953 259.175 99.0423 259.175 100.163 259.281C99.7625 261.396 99.389 263.662 99.0956 265.852C98.0286 265.852 97.7085 266.003 97.3617 266.562C96.3214 268.254 95.2543 274.251 97.1216 275.913C98.3754 277.016 140.656 281.593 151.859 278.798C154.1 278.224 153.993 276.925 153.62 275.551C152.98 273.073 134.947 269.674 129.612 268.194C129.105 268.043 129.212 268.088 128.999 267.861C126.331 265.112 125.584 263.949 124.811 263.737C124.039 263.611 123.228 263.585 122.437 263.662C122.25 262.619 122.063 261.607 121.85 260.459C122.294 260.503 122.752 260.466 123.157 260.353C124.277 259.9 124.17 257.997 124.437 256.728C124.469 256.555 124.383 256.382 124.197 256.244C122.757 255.051 121.53 260.066 135.908 231.621C135.427 234.793 131.479 260.172 132.867 261.426C133.267 261.743 134.04 261.758 135.001 261.804C152.686 262.816 377.319 267.514 396.179 267.635C399.407 267.635 409.517 267.756 410.477 267.393C419.44 264.311 439.446 86.4926 435.578 70.6157ZM236.714 66.2197C239.381 64.1803 267.79 63.2739 270.538 62.3826C270.689 62.3442 270.819 62.283 270.913 62.2058C271.007 62.1285 271.062 62.0382 271.072 61.9445C271.201 59.0077 272.045 56.0949 273.579 53.2885C274.432 51.8592 275.83 50.5538 277.674 49.465C279.518 48.3763 281.763 47.531 284.249 46.9891C291.478 45.4784 303.776 46.8078 307.323 50.4334C309.537 52.654 309.591 60.3432 311.858 61.4158C314.126 62.4884 345.602 62.1258 349.204 64.2105C349.422 64.4584 349.575 64.723 349.657 64.996C350.478 68.2908 350.415 71.6369 349.47 74.921C342.188 76.5676 252.852 78.8336 238.874 77.9423C236.9 77.8215 236.74 77.9423 236.207 76.8244C234.9 74.4829 234.366 68.0023 236.714 66.2197ZM167.945 38.3784C168.131 37.5022 167.438 37.9101 168.932 38.0914C168.72 38.3033 168.601 38.5411 168.587 38.7845C168.572 39.0279 168.661 39.2698 168.848 39.4894C169.034 39.709 169.311 39.8998 169.655 40.0457C169.999 40.1916 170.401 40.2881 170.826 40.3271C170.574 40.5269 170.422 40.7612 170.384 41.0056C170.347 41.2499 170.426 41.4956 170.612 41.7169C171.252 42.4723 172.159 42.578 173.52 42.6686C172.99 43.0091 172.245 43.2175 171.446 43.2486C170.647 43.2797 169.858 43.131 169.252 42.8348C169.012 42.6989 167.838 41.8831 166.291 40.7954C167.076 40.0477 167.635 39.2307 167.945 38.3784ZM177.468 37.8043C177.654 37.8635 177.817 37.9436 177.947 38.0397C178.077 38.1357 178.171 38.2458 178.224 38.3631C178.276 38.4804 178.286 38.6025 178.252 38.722C178.218 38.8415 178.142 38.9559 178.028 39.0582C176.876 38.9894 175.711 39.0354 174.587 39.1941C173.386 39.3452 171.279 39.451 170.772 38.9978C170.025 38.2726 175.494 37.0339 177.468 37.8043ZM171.839 34.8888C174.747 34.209 176.401 35.3571 175.894 35.9765C174.028 36.6602 171.848 37.0175 169.625 37.0037C169.504 37.0024 169.385 36.987 169.274 36.9585C169.164 36.9299 169.066 36.8887 168.985 36.8375C168.398 36.5203 168.798 36.188 169.305 35.8858C170.036 35.4693 170.895 35.1315 171.839 34.8888ZM167.171 30.2511C163.89 27.547 155.914 21.5346 154.634 20.3714L180.055 3.75428C180.962 8.28623 189.712 16.5948 194.06 20.3714C194.203 20.4735 194.399 20.5475 194.62 20.5829C197.043 22.6374 200.034 24.4583 203.476 25.976C201.396 26.127 174.694 29.4051 167.171 30.2511ZM203.716 8.83007C204.39 8.9628 205.008 9.173 205.532 9.44748C206.055 9.72196 206.473 10.0548 206.759 10.425C207.044 10.7953 207.191 11.195 207.191 11.599C207.191 12.0031 207.043 12.4027 206.757 12.7729C205.317 15.0237 201.422 16.7157 197.901 18.1357C196.941 18.5435 196.007 18.9212 195.234 19.2082C191.636 16.3097 188.375 13.2821 185.47 10.1443C190.912 9.22284 198.755 7.68197 203.716 8.83007ZM154.207 34.9341C145.537 36.8526 136.601 30.6136 140.869 25.5832C142.763 23.3172 149.645 21.444 153.833 20.598C154.927 21.731 164.157 29.5713 165.731 30.9762C162.142 32.5178 158.28 33.8442 154.207 34.9341ZM158.181 35.1003C160.502 34.3601 163.25 33.363 165.41 32.502C166.291 33.3026 167.198 34.1788 168.078 34.9794C167.611 35.1846 167.239 35.4517 166.997 35.7574C166.756 36.063 166.65 36.3976 166.691 36.7318C165.962 36.5148 165.133 36.4304 164.317 36.4901C163.24 36.6134 162.286 36.9645 161.649 37.472L158.181 35.1003ZM167.358 45.7957C161.516 42.9103 160.982 43.1369 160.422 42.2608C159.862 41.3846 161.463 40.1005 161.809 39.5567C162.396 38.5899 164.263 37.1245 165.811 37.7439C166.851 38.1518 165.384 40.5084 165.01 40.9918C164.865 41.1191 164.749 41.2561 164.664 41.3997C165.651 42.1811 166.711 42.9325 167.838 43.6506C168.463 43.9619 169.208 44.1861 170.013 44.3053C170.818 44.4245 171.661 44.4353 172.475 44.337C173.289 44.2386 174.051 44.0338 174.7 43.7389C175.35 43.4439 175.868 43.0671 176.214 42.6384L177.494 42.4874C177.6 42.4731 177.693 42.4378 177.757 42.3879C177.821 42.338 177.851 42.2768 177.841 42.2154C177.841 41.8227 176.294 42.2154 174.213 41.7925C173.306 41.6414 172.72 41.5961 172.506 41.2788C172.026 40.6293 176.241 40.1005 177.548 40.1156C177.898 40.0921 178.252 40.108 178.591 40.1625C178.93 40.2169 179.246 40.3088 179.522 40.4329C179.789 40.5688 183.603 44.5721 184.11 45.2367L172.693 48.258C171.172 47.6991 169.172 46.7323 167.358 45.7957ZM176.241 64.4673C176.51 64.5158 176.794 64.5331 177.076 64.5181C177.358 64.5031 177.631 64.4562 177.88 64.38C178.129 64.3039 178.348 64.2002 178.525 64.075C178.702 63.9499 178.832 63.8059 178.908 63.6516C180.242 61.3856 175.04 53.6511 172.506 49.4061L186.457 45.6899C189.685 47.3366 210.465 58.1377 216.414 68.9237C219.828 74.9663 218.521 81.0089 206.384 85.3747C197.057 88.5533 186.215 90.0104 175.36 89.5441C164.494 89.1547 153.841 87.6605 143.91 85.133C144.31 81.8851 144.177 74.6491 145.164 70.7365C145.173 70.6742 145.142 70.6121 145.076 70.5619C145.01 70.5116 144.914 70.4768 144.806 70.4638C144.698 70.4508 144.585 70.4606 144.489 70.4913C144.393 70.5221 144.32 70.5717 144.284 70.6308C143.517 71.946 142.946 73.2952 142.576 74.6642C141.857 78.2305 141.768 81.8286 142.31 85.4049C142.096 85.6466 141.776 84.3777 145.751 105.723C145.751 105.98 160.636 142.81 160.235 147.78C154.9 149.411 124.25 151.224 117.555 151.3C115.448 148.384 103.87 128.64 102.057 125.498C112.727 95.5414 103.951 115.376 119.396 97.1729C124.804 90.771 129.63 84.2162 133.854 77.5345C134.878 75.995 135.698 74.4145 136.308 72.8061C136.521 72.5342 136.815 72.2472 136.308 71.9299L129.479 66.7182C136.735 56.34 136.494 56.899 136.468 56.6422C153.673 59.9807 170.212 63.6969 176.241 64.4673ZM144.55 86.689C150.334 88.078 156.348 89.1357 162.503 89.8462C160.235 98.5627 157.621 110.346 154.874 123.685C145.804 99.2727 149.085 112.279 144.55 86.689ZM62.417 244.718C61.6168 256.365 62.417 255.852 61.5367 255.867C61.4209 255.867 61.3095 255.842 61.2251 255.797C61.1408 255.752 61.09 255.69 61.0832 255.625C60.0429 242.422 62.8438 217.375 68.419 155.137H69.4326C67.6454 178.476 62.6037 241.863 62.417 244.718ZM80.2628 67.821C73.6671 63.598 67.5973 59.1207 62.0969 54.4215C67.1779 53.3402 72.4434 52.5606 77.8087 52.0951C79.5693 54.3913 84.9043 62.8358 86.3981 65.2226L80.3162 67.8663L80.2628 67.821ZM83.4372 51.8534C88.5589 54.8747 99.229 60.4188 106.671 60.8115C105.898 61.5216 101.016 66.0082 100.056 66.6578C97.2016 66.129 85.3578 58.0924 83.2771 56.7026C82.4502 55.4487 81.0631 53.3036 80.1561 52.08L83.4372 51.8534ZM73.8341 75.2987V75.1476C73.8341 75.0872 79.3292 69.6488 79.8627 69.105C80.1028 68.8482 79.2758 69.2712 86.7983 65.7816C99.4424 86.0847 99.0156 88.109 105.471 101.705C69.9395 72.1112 73.9941 75.1476 73.8341 75.2987ZM102.563 65.7212C103.085 66.7997 103.791 67.847 104.671 68.8482C105.204 69.1805 103.657 72.3982 101.123 86.8552C96.5481 77.4922 91.144 68.2655 84.931 59.2103C87.065 60.5245 96.5614 66.4312 99.4691 67.0656C99.6501 67.1315 99.8627 67.164 100.078 67.1586C100.293 67.1532 100.499 67.1102 100.669 67.0354C100.963 66.8542 101.656 66.3254 102.51 65.6456L102.563 65.7212ZM109.312 104.787C112.86 95.7227 120.489 74.0297 121.316 64.8299L127.718 67.2167C135.347 73.2593 134.654 72.5644 134.6 72.8363C133.614 76.054 116.088 99.6353 109.259 104.711L109.312 104.787ZM127.345 66.2348L121.45 64.1803C122.134 61.0217 122.526 57.845 122.623 54.6632C126.331 55.3732 130.172 56.1739 133.774 57.0651C133.133 57.9262 128.545 64.4975 127.345 66.2348ZM116.888 74.8908C116.09 72.7385 115.038 70.6189 113.74 68.5461C113.874 68.2137 114.434 66.7484 114.781 65.8269C115.396 66.2177 116.046 66.5908 116.728 66.9448C117.395 67.2771 117.928 67.4735 118.649 67.2771C118.088 69.815 117.528 72.2321 116.888 74.8908ZM120.356 54.2251C120.328 57.7608 119.918 61.2923 119.129 64.7997C118.649 65.3435 118.249 65.7816 117.955 66.0686C114.833 64.3788 111.877 62.5936 109.099 60.7209C113.82 59.9807 113.874 55.8264 113.394 53.0468C115.821 53.3792 118.142 53.7417 120.356 54.1647V54.2251ZM87.7586 43.6506C87.9186 43.3938 87.7586 43.4693 88.1587 43.5146C89.7808 43.6116 91.414 43.402 92.8037 42.9183C94.1934 42.4346 95.2614 41.7041 95.8412 40.8408C96.4424 39.354 96.2663 37.8003 95.3344 36.3692C94.9349 35.6931 94.6228 35.0014 94.4007 34.2996C93.067 31.2783 89.8126 28.3326 91.3064 25.3717C91.6668 24.5662 92.5684 23.8722 93.819 23.4377C95.0697 23.0031 96.5706 22.8623 98.0019 23.0453C98.7293 23.1939 99.434 23.3758 100.109 23.5891C102.377 24.2538 104.004 24.7372 105.071 24.133C105.071 24.133 108.299 22.3353 111.366 22.8036C112.593 23.0755 115.474 26.5349 116.114 28.4232C115.633 28.0597 114.929 27.8117 114.14 27.7283C111.953 27.5772 110.433 28.5894 110.753 28.8915C112.538 29.1179 114.403 29.0229 116.088 28.6196C117.002 31.4648 117.422 34.3538 117.342 37.2454C116.104 36.7904 114.744 36.4536 113.314 36.2484C112.231 36.2277 111.155 36.3465 110.166 36.5958C109.103 36.4443 108.006 36.3832 106.911 36.4145C103.844 36.7469 101.31 38.6352 99.7625 39.4358C99.0689 39.7984 98.5621 40.7954 99.7625 41.2184C100.963 41.6414 102.697 40.871 103.23 40.5235C105.43 39.2725 107.823 38.135 110.379 37.1246C112.586 37.9502 114.865 38.7115 117.208 39.4056C116.904 40.1427 116.805 40.9021 116.915 41.6565C116.291 42.5448 115.34 43.3477 114.126 44.0119C112.912 44.676 111.462 45.1863 109.872 45.5087C109.663 45.546 109.469 45.607 109.302 45.688C109.136 45.7689 109 45.8681 108.902 45.9796C108.805 46.0911 108.749 46.2126 108.737 46.3368C108.725 46.4609 108.757 46.5852 108.832 46.7021C109.366 48.5904 111.926 52.5332 111.153 56.5062C110.913 57.7449 110.219 59.3009 108.032 59.4369C101.63 59.8447 89.7326 53.6058 85.2244 50.9772V45.2519C86.4226 44.8867 87.3292 44.276 87.7586 43.5448V43.6506ZM84.6642 30.7798C85.1121 32.381 85.406 33.9947 85.5445 35.6139C84.024 35.916 81.9967 34.783 81.6233 33.9824C80.7696 32.3207 81.5166 31.2632 84.6642 30.7798ZM28.646 151.934C28.3259 148.324 36.2218 130.589 37.7423 126.903C38.4841 127.354 39.3958 127.705 40.4098 127.93C40.6407 127.944 40.8739 127.919 41.0787 127.857C41.2836 127.795 41.4503 127.699 41.5569 127.582C41.7436 127.431 42.3838 126.857 43.3175 126.072C44.0918 126.998 45.1793 127.829 46.5185 128.519C42.5439 130.362 41.6903 130.226 42.037 130.589C42.0884 130.644 42.1753 130.685 42.2796 130.705C42.384 130.725 42.4978 130.721 42.5972 130.694C53.9609 127.854 59.7761 122.703 60.443 115.497C60.4514 115.438 60.4206 115.378 60.3566 115.331C60.2926 115.284 60.1998 115.251 60.0962 115.24C59.1893 115.24 59.8295 116.479 56.8685 120.679C55.5346 119.927 53.8949 119.372 52.0937 119.062C52.4496 118.798 52.8421 118.551 53.2674 118.322C53.8809 118.231 54.2277 117.884 53.8809 117.385C53.0006 116.071 47.5322 110.708 46.145 109.364C46.16 109.278 46.16 109.192 46.145 109.107C46.3051 107.007 47.1854 103.291 48.0123 99.2878C49.6078 91.4254 50.3472 83.5147 50.2264 75.6008C50.0311 73.3023 49.2771 71.03 47.9856 68.8482C47.9734 68.8165 47.9502 68.7864 47.9174 68.7597C47.8847 68.7331 47.8429 68.7103 47.7946 68.6928C47.7463 68.6753 47.6924 68.6633 47.6359 68.6575C47.5794 68.6518 47.5215 68.6524 47.4655 68.6594C47.4094 68.6663 47.3563 68.6795 47.3092 68.698C47.2622 68.7166 47.222 68.7402 47.191 68.7676C47.1601 68.7949 47.1389 68.8255 47.1288 68.8574C47.1187 68.8894 47.1198 68.9222 47.132 68.954C47.959 72.2774 48.3858 85.4503 48.3858 85.7524C45.905 87.8824 34.1411 96.9161 34.1945 98.321C34.4741 99.1664 34.9401 99.9886 35.5816 100.768C35.5816 101.161 33.9544 98.7138 44.7579 110.074C46.1717 111.585 50.5198 116.116 51.6668 117.536C47.5146 120.423 43.6753 123.45 40.1698 126.6C34.1678 123.881 16.162 112.4 11.0403 108.473C7.54025 106.003 5.05286 103.124 3.75792 100.043C2.34216 97.4444 1.92379 94.7043 2.53086 92.0065C5.1984 82.2628 22.5907 69.7546 36.1418 63.3041C43.6104 59.6751 52.0816 56.7661 61.2166 54.6934C62.7371 56.2041 65.9115 58.8024 69.2192 61.4913C78.9557 69.1805 79.0091 68.0173 78.4222 68.5914C76.9817 70.1021 72.607 74.06 71.9134 74.9512C71.54 75.4498 68.4456 73.214 106.058 104.968C104.857 108.654 91.6799 150 88.9323 153.46C84.2908 154.502 33.2609 154.155 28.646 151.934ZM47.0787 128.247C45.993 127.37 45.181 126.394 44.6779 125.362C46.1097 123.814 47.7978 122.347 49.7196 120.981C50.8666 120.12 50.8132 120.029 51.5868 120.059C53.3222 120.198 54.9759 120.565 56.4151 121.132C54.3876 123.924 51.1489 126.382 46.9987 128.277L47.0787 128.247ZM44.1444 107.4C42.5172 105.889 36.5419 99.4993 36.3819 98.3361C37.5022 96.6442 43.4508 91.5382 48.6792 86.6437C48.0657 91.8705 45.1847 100.783 44.0644 107.43L44.1444 107.4ZM72.8471 283.028C72.8465 283.253 72.7927 283.476 72.687 283.693C72.6396 283.749 72.5657 283.796 72.4736 283.829C69.7303 285.019 66.631 285.92 63.324 286.488C61.51 286.805 61.4834 286.835 57.5087 285.793C55.3453 285.257 53.2506 284.636 51.24 283.935C50.5998 283.602 50.5198 282.515 50.5198 282.031C52.362 282.983 54.3942 283.809 56.5751 284.494C60.363 285.657 62.9505 285.868 68.7391 284.342C70.1772 283.977 71.5524 283.537 72.8471 283.028ZM70.4996 265.127C70.2596 266.804 69.9928 268.526 69.7261 270.067C67.4771 269.284 65.1327 268.592 62.7104 267.997C60.4164 267.665 56.3083 269.266 54.3877 270.067C54.1743 268.889 53.9609 267.408 53.5608 264.84C56.5751 264.931 60.1496 264.976 63.1639 264.991C71.3266 265.036 70.553 264.9 70.4996 265.127ZM75.3279 263.616C75.0611 263.616 51.5601 263.843 50.5998 263.798C49.833 262.736 49.6381 261.569 50.0396 260.444C50.406 260.388 50.7813 260.352 51.16 260.338C59.2816 260.366 67.391 260.699 75.4346 261.335C75.5018 262.131 75.4661 262.929 75.3279 263.722V263.616ZM119.342 260.323C119.529 261.471 119.689 262.665 119.876 263.828C118.965 263.915 118.072 264.051 117.208 264.236C115.154 264.855 116.915 267 116.248 267.484C113.74 267.317 105.231 265.973 100.723 265.807C100.883 263.767 101.096 261.275 101.283 259.356C106.565 259.779 114.274 260.127 119.342 260.323ZM151.353 276.109C151.353 276.714 151.566 277.363 150.766 277.62C141.456 279.962 101.843 276.336 97.9752 275.445C97.6062 274.967 97.3895 274.455 97.335 273.934C112.06 275.339 139.482 279.297 151.353 276.109ZM121.53 259.19C121.263 259.19 99.8158 258.42 99.0689 258.344C98.774 257.57 98.6486 256.779 98.6955 255.988C98.6662 255.639 98.7851 255.292 99.0423 254.975C102.27 254.658 118.702 256.486 121.956 256.924C121.889 257.683 121.747 258.44 121.53 259.19ZM134.707 194.232C133.027 198.764 116.408 245.066 113.687 252.12C113.651 252.179 113.578 252.229 113.481 252.26C113.385 252.29 113.273 252.3 113.165 252.287C113.056 252.274 112.96 252.239 112.895 252.189C112.829 252.139 112.797 252.077 112.807 252.015C114.994 245.625 130.706 198.84 132.52 193.96C133.373 191.679 126.198 156.118 125.344 152.312H126.758C130.653 166.572 135.534 191.921 134.707 194.232ZM408.61 266.487C397.326 266.985 136.761 260.791 134.414 260.625C133.854 256.652 138.015 229.763 138.628 225.79C142.897 217.224 151.032 200.411 153.433 191.573C155.514 183.854 151.859 166.572 150.046 158.777C150.579 155.967 151.086 153.173 151.619 150.393C154.695 150.134 157.723 149.714 160.662 149.139C161.463 148.928 162.263 148.641 162.343 148.157C162.85 145.468 157.008 129.848 156.127 127.144C159.062 112.43 162.023 99.454 164.29 89.9973C179.148 91.508 194.647 90.9792 207.504 86.3567C219.882 81.9153 221.882 75.7821 218.921 69.6488C223.856 69.3769 229.058 69.1201 234.446 68.8784C233.859 71.3106 233.966 77.187 236.234 78.1991C240.528 80.1328 341.841 77.8517 350.217 75.9634C350.63 75.8823 350.979 75.7219 351.204 75.5102C352.485 74.1204 352.378 68.3044 352.005 66.129C360.301 66.129 429.363 65.8269 434.298 69.5884C439.873 73.8485 417.332 266.003 408.61 266.411V266.487Z" fill="#000640"/>
<path d="M294.537 155.858C294.243 154.816 293.63 154.62 292.616 154.453C287.281 153.577 256.311 152.58 253.697 153.577C251.083 154.574 245.934 166.161 247.748 169.756C247.92 169.964 248.168 170.148 248.477 170.297C248.785 170.445 249.146 170.555 249.536 170.617C255.858 172.128 286.401 173.533 289.709 172.475C293.016 171.418 295.31 158.713 294.537 155.858ZM289.709 170.285C289.487 170.701 289.163 171.098 288.748 171.463C286.614 172.143 253.377 171.131 249.429 169.454C247.642 166.085 252.096 154.801 254.204 153.97C256.311 153.139 289.095 154.725 292.51 155.586C293.603 158.109 291.336 167.4 289.709 170.285ZM283.173 183.352C280.506 182.189 245.828 181.252 243.16 182.219C240.493 183.186 235.398 194.712 237.212 198.398C237.387 198.604 237.637 198.787 237.945 198.935C238.253 199.084 238.612 199.194 238.999 199.259C245.374 200.77 271.729 201.903 277.891 201.329C278.294 201.32 278.688 201.26 279.044 201.153C279.4 201.045 279.708 200.894 279.945 200.709C282.586 198.64 285.974 184.636 283.173 183.352ZM278.212 200.09C276.024 200.785 242.973 199.773 238.892 198.081C237.105 194.712 241.56 183.428 243.667 182.597C245.774 181.766 278.852 183.413 281.946 184.213C283.28 187.038 279.972 199.531 278.212 200.09ZM276.984 211.299C274.317 210.151 239.639 209.199 236.971 210.166C234.304 211.133 229.209 222.644 231.023 226.315C231.195 226.523 231.443 226.707 231.751 226.855C232.06 227.004 232.421 227.113 232.81 227.176C239.186 228.687 265.541 229.82 271.703 229.246C272.108 229.235 272.503 229.173 272.859 229.063C273.215 228.953 273.522 228.798 273.757 228.611C276.371 226.617 279.812 212.598 276.984 211.299ZM272.956 226.874C272.956 227.055 272.29 227.962 271.996 228.037C269.809 228.732 236.758 227.705 232.677 226.028C230.916 222.674 235.344 211.39 237.452 210.544C239.559 209.698 272.316 211.299 275.757 212.16C276.824 214.607 274.77 223.686 272.956 226.874Z" fill="#000640"/>
<path d="M281.173 158.609C276.398 161.177 272.156 164.153 269.062 165.271C267.968 165.678 267.408 165.814 266.394 165.512C264.743 164.921 263.34 164.132 262.286 163.201C262.225 163.158 262.14 163.127 262.045 163.115C261.949 163.104 261.849 163.111 261.762 163.135C261.674 163.16 261.604 163.201 261.564 163.252C261.523 163.302 261.515 163.359 261.54 163.412C262.435 164.622 263.903 165.667 265.781 166.434C266.463 166.634 267.233 166.716 267.996 166.67C268.76 166.625 269.483 166.453 270.076 166.177C272.252 165.322 274.217 164.306 275.918 163.156C277.993 161.807 279.926 160.389 281.706 158.911C281.764 158.895 281.814 158.872 281.853 158.843C281.891 158.814 281.917 158.78 281.928 158.745C281.939 158.709 281.934 158.672 281.915 158.638C281.896 158.603 281.862 158.572 281.817 158.546C281.771 158.52 281.716 158.501 281.655 158.49C281.594 158.479 281.529 158.477 281.466 158.483C281.403 158.489 281.343 158.504 281.292 158.525C281.241 158.547 281.2 158.576 281.173 158.609ZM270.689 187.235C264.927 190.332 259.459 194.26 256.925 194.32C256.136 194.234 255.406 194.025 254.817 193.716C251.99 192.402 251.99 191.511 251.296 191.737C251.245 191.75 251.2 191.769 251.163 191.792C251.125 191.815 251.097 191.843 251.079 191.872C251.062 191.902 251.055 191.934 251.061 191.965C251.066 191.997 251.082 192.027 251.109 192.054C252.096 193.354 254.444 195.363 256.951 195.393C260.152 195.393 265.381 192.039 267.275 190.695C269.169 189.35 270.556 188.112 271.303 187.538C271.373 187.491 271.409 187.431 271.401 187.37C271.394 187.31 271.344 187.253 271.263 187.213C271.181 187.173 271.075 187.153 270.968 187.157C270.86 187.161 270.76 187.189 270.689 187.235ZM264.474 215.182C258.819 218.204 253.217 222.207 250.736 222.252C249.932 222.179 249.187 221.968 248.602 221.648C245.748 220.334 245.934 219.458 245.081 219.669C245.031 219.685 244.988 219.706 244.953 219.731C244.918 219.756 244.893 219.785 244.878 219.816C244.863 219.847 244.859 219.879 244.866 219.911C244.874 219.943 244.892 219.974 244.921 220.001C245.881 221.301 248.229 223.31 250.763 223.34C253.964 223.34 259.192 219.986 261.059 218.642C262.927 217.297 264.367 216.059 265.087 215.485C265.461 215.258 264.847 214.956 264.474 215.182ZM469.634 163.881C461.018 163.594 320.839 160.255 311.956 160.044C311.864 160.057 311.783 160.087 311.725 160.13C311.667 160.172 311.635 160.224 311.635 160.278C311.635 160.331 311.667 160.384 311.725 160.426C311.783 160.468 311.864 160.499 311.956 160.512C320.999 160.844 463.765 164.258 469.661 164.349C469.752 164.334 469.832 164.302 469.887 164.259C469.943 164.215 469.972 164.163 469.969 164.109C469.966 164.055 469.931 164.004 469.871 163.962C469.81 163.921 469.727 163.892 469.634 163.881ZM459.15 192.523C450.534 192.236 310.355 188.897 301.473 188.671C301.409 188.661 301.344 188.661 301.28 188.668C301.216 188.676 301.156 188.691 301.105 188.714C301.054 188.736 301.012 188.765 300.983 188.798C300.955 188.831 300.94 188.868 300.94 188.905C300.94 188.942 300.955 188.978 300.983 189.011C301.012 189.044 301.054 189.073 301.105 189.096C301.156 189.118 301.216 189.134 301.28 189.141C301.344 189.149 301.409 189.148 301.473 189.139C310.515 189.471 453.255 192.885 459.15 192.991C459.242 192.978 459.324 192.947 459.382 192.905C459.44 192.863 459.471 192.811 459.471 192.757C459.471 192.703 459.44 192.651 459.382 192.609C459.324 192.566 459.242 192.536 459.15 192.523ZM452.935 220.47C444.319 220.183 304.14 216.844 295.257 216.618C295.165 216.631 295.084 216.661 295.026 216.703C294.968 216.746 294.936 216.798 294.936 216.852C294.936 216.905 294.968 216.958 295.026 217C295.084 217.042 295.165 217.073 295.257 217.086C304.273 217.418 447.04 220.832 452.935 220.923C453.041 220.923 453.143 220.899 453.218 220.857C453.293 220.814 453.335 220.756 453.335 220.696C453.335 220.636 453.293 220.579 453.218 220.536C453.143 220.494 453.041 220.47 452.935 220.47ZM468.434 174.576C459.817 174.304 319.638 170.951 310.782 170.739C310.719 170.73 310.653 170.729 310.59 170.737C310.526 170.744 310.466 170.76 310.415 170.782C310.363 170.805 310.322 170.834 310.293 170.867C310.264 170.9 310.25 170.936 310.25 170.973C310.25 171.01 310.264 171.046 310.293 171.08C310.322 171.113 310.363 171.142 310.415 171.164C310.466 171.187 310.526 171.202 310.59 171.21C310.653 171.217 310.719 171.217 310.782 171.207C319.798 171.54 462.565 174.954 468.46 175.044C468.551 175.03 468.631 174.998 468.687 174.954C468.743 174.911 468.771 174.858 468.768 174.804C468.765 174.751 468.731 174.699 468.67 174.658C468.609 174.616 468.526 174.588 468.434 174.576ZM458.003 203.218C449.387 202.931 309.208 199.593 300.325 199.381C299.792 199.381 299.739 199.819 300.325 199.849C309.368 200.182 452.135 203.581 458.03 203.686C458.121 203.671 458.201 203.64 458.257 203.596C458.313 203.553 458.341 203.5 458.338 203.446C458.335 203.393 458.301 203.341 458.24 203.3C458.179 203.258 458.096 203.23 458.003 203.218ZM451.788 231.165C443.199 230.878 303.02 227.54 294.137 227.313C294.024 227.313 293.915 227.338 293.835 227.384C293.755 227.429 293.71 227.491 293.71 227.555C293.71 227.619 293.755 227.68 293.835 227.726C293.915 227.771 294.024 227.796 294.137 227.796C303.18 228.114 445.919 231.528 451.815 231.633C451.906 231.619 451.986 231.587 452.042 231.543C452.097 231.5 452.126 231.447 452.123 231.393C452.12 231.34 452.085 231.288 452.025 231.247C451.964 231.205 451.881 231.177 451.788 231.165ZM317.985 141.629C318.811 141.357 319.185 140.496 319.425 139.922C322.946 131.84 327.001 94.8289 326.147 92.7442C326.074 92.605 325.936 92.4797 325.747 92.3816C324.227 91.5961 315.824 91.5055 312.916 91.4602C297.685 91.2487 262.233 91.8982 261.833 92.1097C260.846 92.7895 246.148 137.127 247.962 140.133C249.776 143.14 311.689 143.638 317.985 141.629ZM249.696 139.725C249.676 139.564 249.676 139.403 249.696 139.242C249.718 139.29 249.768 139.333 249.838 139.364C249.908 139.394 249.994 139.411 250.082 139.411C250.171 139.411 250.257 139.394 250.326 139.364C250.396 139.333 250.447 139.29 250.469 139.242C251.606 136.762 253.847 134.489 256.978 132.64C260.561 130.373 265.175 128.706 270.316 127.822C272.642 129.53 275.173 131.145 277.892 132.656C278.505 132.912 279.225 132.656 279.972 132.459C282.64 136.281 281.359 131.341 279.972 141.523C275.998 141.448 253.137 140.949 249.696 139.725ZM279.812 122.081C278.324 121.746 276.988 121.227 275.902 120.56C274.817 119.893 274.011 119.096 273.543 118.229C273.26 117.57 273.081 116.897 273.01 116.22C273.935 116.913 275.226 117.421 276.695 117.671C278.165 117.921 279.736 117.9 281.183 117.61C282.629 117.321 283.876 116.778 284.742 116.061C285.608 115.344 286.049 114.49 286.001 113.621H286.481C285.76 114.998 285.445 116.432 285.547 117.866C285.559 118.078 285.659 118.285 285.841 118.471C286.641 119.045 287.441 119.03 288.802 118.909C288.909 118.906 289.01 118.881 289.088 118.84C289.166 118.798 289.216 118.742 289.229 118.682C289.229 118.335 288.161 118.486 287.415 118.063C287.415 117.549 287.708 115.812 287.735 115.374C287.735 113.47 287.068 113.682 288.028 113.682C287.844 114.42 288.025 115.173 288.553 115.856C289.081 116.538 289.933 117.125 291.016 117.549C292.312 118.026 293.834 118.267 295.379 118.24C296.924 118.213 298.417 117.919 299.659 117.398C299.659 117.594 299.392 117.821 299.178 118.123C298.451 119.483 297.009 120.684 295.044 121.567C291.923 122.806 289.922 122.368 290.135 123.199C290.456 124.392 291.176 125.238 291.629 127.006C289.288 127.804 287.034 128.682 284.88 129.634C282.821 128.554 280.647 127.545 278.372 126.613C279.439 123.456 281.306 122.459 279.812 122.081ZM288.428 112.7C288.345 112.829 288.274 112.96 288.215 113.093C287.872 112.962 287.468 112.892 287.054 112.892C286.641 112.892 286.237 112.962 285.894 113.093C285.84 112.652 285.616 112.224 285.238 111.837C284.861 111.451 284.338 111.116 283.707 110.857C282.034 110.252 280.09 109.932 278.105 109.935C276.693 109.899 275.309 110.169 274.237 110.691C274.99 108.736 277.019 107.015 279.919 105.872C284.934 104.104 292.723 104.452 295.924 107.262C296.645 107.829 297.186 108.463 297.525 109.135C297.701 109.649 297.95 110.154 298.271 110.645C297.695 110.509 297.082 110.427 296.458 110.404C292.99 110.268 289.282 110.736 288.428 112.73V112.7ZM281.706 116.461C281.054 116.649 280.343 116.762 279.613 116.792C278.884 116.822 278.151 116.77 277.458 116.637C276.765 116.505 276.125 116.296 275.576 116.022C275.028 115.748 274.582 115.414 274.264 115.041C273.357 113.108 274.77 110.932 278.132 110.917C288.295 110.721 285.254 115.721 281.706 116.461ZM296.484 111.371C299.845 111.582 300.806 113.848 299.579 115.721C299.188 116.07 298.68 116.371 298.083 116.607C297.486 116.844 296.812 117.011 296.101 117.1C295.389 117.188 294.653 117.196 293.936 117.123C293.219 117.05 292.535 116.897 291.923 116.673C288.482 115.736 286.188 110.555 296.431 111.371H296.484ZM301.819 112.881L302.486 112.67C304.007 113.319 304.273 114.422 301.686 115.691C302.126 114.82 302.172 113.901 301.819 113.017V112.881ZM270.262 112.156C270.477 112.038 270.764 111.972 271.063 111.972C271.362 111.972 271.649 112.038 271.863 112.156C271.99 112.22 272.148 112.262 272.316 112.277C271.862 113.103 271.77 113.979 272.05 114.83C270.156 114.18 268.635 113.138 270.262 112.216V112.156ZM290.269 131.795C288.994 131.304 287.773 130.769 286.614 130.193L294.404 126.613C295.017 126.87 296.698 127.58 297.605 128.018C293.176 130.269 291.309 131.341 290.269 131.84V131.795ZM283.013 130.072C281.625 130.586 280.191 131.06 278.718 131.492C277.972 131.054 271.649 127.112 271.649 127.112C272.69 126.719 274.664 126.084 275.357 125.873L283.013 130.072ZM289.709 141.72C289.698 139.3 289.17 136.891 288.135 134.544C289.895 132.595 288.935 133.033 289.949 133.169C290.083 133.203 290.228 133.221 290.376 133.221C290.523 133.221 290.668 133.203 290.802 133.169C293.454 131.897 295.933 130.513 298.218 129.03C307.314 131.311 314.49 135.073 316.891 140.632C316.171 141.719 292.083 141.72 289.709 141.72ZM262.446 92.4874C269.142 92.3816 318.225 91.6565 324.467 93.0765C325.08 96.0978 320.359 133.486 317.451 139.589C314.97 134.302 308.141 130.526 299.338 128.184C299.739 127.686 298.778 127.383 294.617 126.084C294.553 126.061 294.479 126.049 294.404 126.049C294.328 126.049 294.254 126.061 294.19 126.084L293.15 126.447C292.75 124.936 292.35 124.498 292.003 123.426C293.617 123.199 295.131 122.785 296.449 122.211C297.766 121.636 298.859 120.913 299.659 120.087C300.639 119.105 301.384 118.053 301.873 116.96C305.207 115.661 307.048 113.848 304.54 112.096C305.26 111.461 305.767 110.948 305.234 110.268C305.46 110.074 305.604 109.853 305.655 109.622C305.706 109.392 305.662 109.158 305.527 108.938C305.399 108.638 305.202 108.348 304.94 108.077C305.212 107.827 305.389 107.548 305.462 107.257C305.535 106.966 305.502 106.67 305.364 106.386C305.227 106.103 304.988 105.839 304.663 105.61C304.337 105.381 303.932 105.193 303.473 105.056C303.581 104.688 303.526 104.31 303.312 103.957C303.098 103.604 302.733 103.287 302.249 103.034C301.765 102.78 301.177 102.599 300.539 102.507C299.9 102.414 299.231 102.413 298.592 102.503C298.362 102.16 297.964 101.861 297.445 101.642C297.015 101.437 296.518 101.282 295.982 101.186C295.447 101.09 294.883 101.055 294.324 101.083C292.296 101.174 293.15 101.536 292.723 100.947C292.503 100.664 292.118 100.431 291.633 100.289C291.148 100.146 290.592 100.101 290.055 100.161C289.2 100.196 288.382 100.375 287.708 100.675C286.909 100.301 285.904 100.096 284.867 100.096C283.83 100.096 282.825 100.301 282.026 100.675C281.626 100.917 281.839 100.856 281.493 100.781C280.618 100.653 279.7 100.653 278.825 100.781C278.301 100.846 277.811 100.98 277.394 101.171C276.977 101.362 276.645 101.607 276.424 101.884C275.992 101.839 275.549 101.839 275.117 101.884C274.249 102.061 273.469 102.354 272.842 102.738C272.215 103.122 271.76 103.585 271.516 104.089C271.502 104.205 271.502 104.321 271.516 104.437C271.016 104.6 270.535 104.782 270.076 104.98C269.574 105.322 269.244 105.734 269.122 106.173C269 106.611 269.09 107.061 269.382 107.473C268.764 107.721 268.305 108.076 268.075 108.485C267.936 109.002 268.085 109.53 268.502 109.996C268.659 110.122 268.828 110.243 269.009 110.358L268.742 110.54C268.568 110.803 268.568 111.092 268.742 111.355C268.296 111.651 267.985 112.003 267.836 112.383C267.687 112.762 267.705 113.156 267.888 113.531C268.495 114.461 269.594 115.263 271.036 115.827C271.036 116.174 271.036 116.764 271.276 117.338C271.532 118.529 272.324 119.662 273.576 120.631C274.828 121.599 276.497 122.369 278.425 122.867C277.804 123.855 277.287 124.864 276.878 125.888C275.731 125.404 275.571 125.284 275.277 125.374C271.036 126.326 269.942 126.613 269.942 126.885C258.925 128.894 251.27 134.574 249.776 138.97C249.856 132.308 261.219 94.7685 262.446 92.4874ZM482.465 117.761C482.091 117.534 349.621 117.066 349.355 117.081C349.242 117.081 349.133 117.106 349.053 117.152C348.973 117.197 348.928 117.258 348.928 117.322C348.928 117.171 347.914 124.136 349.275 124.589C352.876 125.737 470.087 126.84 480.731 126.25C481.194 126.254 481.645 126.169 482.011 126.009C483.959 124.876 483.905 118.455 482.465 117.761ZM349.435 117.549H349.595C349.595 117.549 349.461 117.625 349.435 117.549ZM480.677 125.102C474.595 125.54 356.29 124.951 349.968 124.12C349.594 121.935 349.594 119.734 349.968 117.549L481.344 118.803C481.845 120.907 481.618 123.047 480.677 125.102ZM482.785 105.086C482.411 104.86 349.942 104.391 349.675 104.406C349.564 104.41 349.459 104.437 349.38 104.481C349.301 104.526 349.254 104.585 349.248 104.648C349.248 104.497 348.208 111.461 349.595 111.914C353.409 113.153 470.968 114.135 481.051 113.576C481.514 113.579 481.965 113.494 482.331 113.334C484.279 112.201 484.199 105.781 482.785 105.086ZM349.755 104.875H349.915C350.075 104.875 349.782 104.965 349.755 104.875ZM480.998 112.428C475.262 112.866 356.664 112.277 350.288 111.431C349.928 109.25 349.928 107.055 350.288 104.875L481.664 106.129C482.151 108.228 481.925 110.361 480.998 112.413V112.428ZM483.078 92.9104C482.868 92.8143 482.601 92.7659 482.331 92.7744C482.331 92.7744 351.249 92.2004 350.448 92.2155C350.048 92.2155 349.488 92.2155 349.515 92.4723C349.515 92.3212 348.501 99.2853 349.862 99.7385C353.169 100.796 480.571 102.322 482.598 101.159C484.625 99.9953 484.439 93.6053 483.078 92.9104ZM350.022 92.6989H350.182C350.342 92.6989 350.048 92.7744 350.022 92.6989ZM481.264 100.252C475.156 100.69 356.29 100.071 350.555 99.2551C350.141 97.0773 350.087 94.8823 350.395 92.6989L481.771 93.9527C482.32 96.0464 482.148 98.1804 481.264 100.237V100.252ZM372.215 139.166C373.789 138.668 373.949 137.882 373.202 137.384C371.089 136.616 368.719 136.102 366.24 135.873C366.005 134.526 365.16 133.235 363.786 132.127C361.119 130.767 359.385 133.879 358.451 135.828C356.21 135.934 351.275 136.296 350.902 137.55C350.902 137.988 351.435 138.26 352.129 138.456C353.702 138.814 355.315 139.112 356.957 139.348C354.823 140.617 350.022 143.562 353.009 143.88C354.716 144.091 359.251 142.55 361.412 142.278C363.413 142.913 367.734 144.892 369.415 144.227C371.095 143.562 368.694 141.417 367.334 139.952C368.997 139.767 370.63 139.505 372.215 139.166ZM397.69 139.846C399.291 139.363 399.451 138.577 398.677 138.079C396.584 137.299 394.219 136.783 391.742 136.568C391.506 135.216 390.661 133.921 389.288 132.807C386.62 131.462 384.886 134.574 383.953 136.523C381.712 136.629 376.777 136.976 376.404 138.245C376.27 138.668 376.937 138.955 377.631 139.151C379.2 139.5 380.803 139.798 382.432 140.043C380.325 141.297 375.497 144.257 378.484 144.575C380.191 144.786 384.86 143.23 386.887 143.064C388.994 143.729 393.236 145.662 394.89 144.998C396.543 144.333 394.169 142.188 392.836 140.722C394.501 140.522 396.128 140.229 397.69 139.846ZM424.232 140.405C425.806 139.907 425.966 139.121 425.219 138.638C423.113 137.861 420.74 137.347 418.257 137.127C418.034 135.778 417.188 134.486 415.803 133.381C413.135 132.021 411.402 135.133 410.468 137.082C408.227 137.203 403.292 137.55 402.946 138.804C402.946 139.242 403.479 139.529 404.173 139.71C405.735 140.074 407.339 140.376 408.974 140.617C406.867 141.871 402.039 144.831 405.026 145.149C406.733 145.36 411.268 143.819 413.429 143.547C415.43 144.197 419.751 146.161 421.432 145.496C423.112 144.831 420.685 142.686 419.351 141.221C421.017 141.031 422.651 140.758 424.232 140.405ZM451.921 140.994C453.522 140.511 453.655 139.71 452.908 139.227C450.802 138.451 448.429 137.936 445.946 137.716C445.715 136.371 444.88 135.081 443.519 133.97C440.851 132.61 439.091 135.737 438.184 137.671C435.943 137.792 431.008 138.139 430.661 139.408C430.528 139.831 431.195 140.118 431.888 140.315C433.457 140.664 435.06 140.961 436.69 141.206C434.582 142.46 429.754 145.421 432.742 145.738C434.422 145.949 439.091 144.393 441.145 144.137C443.172 144.786 447.44 146.75 449.147 146.085C450.854 145.421 448.427 143.275 447.093 141.81C448.744 141.624 450.36 141.351 451.921 140.994ZM444.666 141.523C444.666 142.082 447.067 143.925 447.653 145.118C447.173 144.998 446.506 144.756 445.973 144.59C441.705 143.306 441.865 142.883 440.104 143.23C438.744 143.502 434.236 144.877 433.035 144.998C433.303 144.503 433.718 144.038 434.262 143.623C437.197 141.161 438.637 141.13 436.797 140.602C435.04 140.309 433.355 139.893 431.782 139.363C432.262 138.668 437.117 138.472 438.771 138.456C439.704 138.456 439.384 138.049 440.878 136.055C441.213 135.56 441.661 135.093 442.212 134.665C442.717 135.081 443.079 135.547 443.279 136.039C444.266 137.958 443.732 138.487 444.852 138.623C447.035 138.868 449.152 139.274 451.148 139.831C450.73 140.004 450.26 140.132 449.761 140.209C446.453 140.768 444.586 140.707 444.666 141.523ZM479.317 139.031C477.469 138.571 475.549 138.212 473.582 137.958C473.318 137.007 472.871 136.074 472.248 135.178C471.128 133.668 469.314 133.381 467.873 134.74C466.957 135.751 466.233 136.815 465.713 137.913C463.898 137.985 462.107 138.183 460.378 138.502C458.857 138.834 457.55 139.529 458.377 140.133C460.125 140.79 462.097 141.233 464.165 141.432C462.575 142.364 461.138 143.375 459.871 144.454C458.644 145.662 459.391 146.403 462.085 145.964C464.139 145.602 467.073 144.711 468.62 144.454C469.954 144.877 473.955 146.584 475.849 146.538C476.042 146.543 476.233 146.524 476.413 146.485C476.592 146.446 476.756 146.386 476.893 146.31C477.031 146.233 477.139 146.142 477.212 146.041C477.285 145.94 477.32 145.832 477.316 145.723C476.818 144.443 475.914 143.225 474.649 142.127C476.315 141.943 477.948 141.675 479.53 141.327C481.238 140.783 481.771 139.741 479.317 139.031ZM472.915 141.236C470.941 141.765 474.329 143.517 475.262 145.436C474.035 145.118 469.607 143.562 469.287 143.487C467.847 143.14 464.486 144.56 461.471 145.149L460.671 145.315C461.764 143.93 463.271 142.663 465.126 141.568C466.166 140.919 460.484 140.451 459.391 139.741C459.604 139.423 461.044 139.197 461.605 139.121C465.499 138.608 466.806 139.121 467.153 138.487C467.78 137.279 468.676 136.122 469.821 135.042C470.85 136.117 471.476 137.299 471.661 138.517C471.821 139.151 472.755 138.895 476.543 139.65C477.327 139.783 478.08 139.971 478.784 140.209C477.85 140.602 474.249 140.874 472.915 141.236ZM361.865 60.9299C364.748 61.0617 367.611 60.5645 369.868 59.5401C376.564 56.1562 367.201 49.7209 357.918 53.1803C350.662 55.8843 355.09 60.7788 361.865 60.9299ZM358.905 54.1018C360.717 53.3505 362.973 53.0257 365.2 53.1954C366.312 53.2871 367.373 53.5229 368.298 53.8845C369.223 54.2461 369.989 54.7236 370.535 55.2801C372.349 58.2258 367.521 59.9933 361.919 59.812C357.037 59.661 353.569 56.1714 358.905 54.1018ZM132.698 127.414C132.164 127.293 132.698 127.414 128.856 129.619C125.015 131.825 121.441 133.033 121.787 133.396C122.134 133.758 125.362 132.852 125.895 132.686C127.61 132.078 129.156 131.329 130.484 130.465C131.417 129.846 133.685 127.655 132.698 127.414ZM173.884 30.3694C174.018 30.0069 172.23 29.6897 170.923 29.7803C168.042 29.9918 166.842 31.2909 167.456 31.5175C169.703 31.3572 171.881 30.9683 173.884 30.3694ZM180.34 35.974C181.096 36.1371 181.915 36.184 182.714 36.1099C183.07 36.0714 183.412 35.9999 183.728 35.8984C184.048 35.8149 184.316 35.677 184.492 35.5039C184.669 35.3307 184.747 35.1308 184.715 34.9316C184.715 33.5418 181.3 30.4752 180.393 30.8075C180.073 30.9133 180.153 30.9888 180.66 31.9405C180.985 32.5914 181.395 33.2276 181.887 33.8439C182.169 34.2042 182.392 34.5784 182.554 34.9618C182 35.2515 181.301 35.4363 180.553 35.4905C180.497 35.4826 180.439 35.481 180.382 35.4858C180.325 35.4906 180.27 35.5018 180.22 35.5186C180.171 35.5355 180.127 35.5576 180.093 35.5839C180.059 35.6102 180.034 35.6401 180.02 35.6718C180.006 35.7036 180.003 35.7366 180.011 35.7689C180.02 35.8013 180.039 35.8324 180.069 35.8604C180.099 35.8885 180.138 35.913 180.185 35.9324C180.231 35.9519 180.284 35.966 180.34 35.974ZM179.433 41.8051C179.611 42.0361 179.877 42.2422 180.211 42.4087C180.546 42.5752 180.94 42.6981 181.368 42.7687C181.795 42.8393 182.245 42.8559 182.685 42.8173C183.125 42.7787 183.545 42.6858 183.914 42.5453C184.016 42.5217 184.099 42.4781 184.148 42.4226C184.197 42.367 184.209 42.3033 184.181 42.2432C183.968 41.8957 183.434 42.3338 182.074 41.8957C181.792 41.7988 181.557 41.664 181.389 41.5032C181.222 41.3424 181.127 41.1607 181.113 40.9742C181.129 40.7787 181.217 40.5872 181.374 40.4127C181.53 40.2381 181.751 40.0845 182.02 39.9621C182.263 39.8893 182.533 39.8513 182.807 39.8513C183.082 39.8513 183.352 39.8893 183.594 39.9621C184.021 40.1585 184.501 39.7808 184.074 39.5995C181.513 37.9227 177.912 40.0527 179.433 41.8051ZM185.675 106.461C185.049 106.467 184.435 106.562 183.89 106.735C183.344 106.909 182.882 107.156 182.547 107.456C182.211 107.755 182.012 108.097 181.966 108.45C181.921 108.804 182.031 109.159 182.287 109.482C184.048 111.491 190.103 110.751 189.996 108.576C189.974 108.273 189.842 107.976 189.609 107.703C189.376 107.431 189.047 107.188 188.642 106.99C188.238 106.791 187.766 106.642 187.255 106.551C186.745 106.461 186.207 106.43 185.675 106.461ZM187.996 109.044C187.932 109.343 187.661 109.615 187.244 109.8C186.826 109.986 186.295 110.07 185.768 110.034C185.241 109.998 184.761 109.844 184.433 109.608C184.106 109.371 183.957 109.071 184.021 108.772C184.021 108.634 184.069 108.497 184.164 108.37C184.258 108.242 184.396 108.127 184.569 108.03C184.743 107.933 184.949 107.856 185.176 107.805C185.402 107.753 185.644 107.728 185.888 107.73C186.195 107.711 186.506 107.733 186.796 107.794C187.086 107.854 187.347 107.952 187.559 108.079C187.77 108.207 187.927 108.36 188.017 108.527C188.107 108.695 188.127 108.872 188.076 109.044H187.996ZM184.955 116.703C184.326 116.706 183.709 116.798 183.159 116.97C182.609 117.143 182.145 117.391 181.808 117.691C181.471 117.992 181.272 118.335 181.23 118.69C181.188 119.046 181.304 119.401 181.567 119.724C183.301 121.703 189.383 121.008 189.276 118.818C189.25 118.516 189.115 118.22 188.881 117.948C188.647 117.677 188.318 117.435 187.914 117.237C187.51 117.039 187.04 116.89 186.531 116.798C186.022 116.707 185.486 116.674 184.955 116.703ZM187.275 119.286C187.284 119.449 187.23 119.612 187.119 119.762C187.008 119.913 186.842 120.048 186.631 120.159C186.42 120.271 186.17 120.355 185.896 120.407C185.623 120.459 185.334 120.478 185.047 120.462C184.76 120.446 184.483 120.395 184.234 120.313C183.984 120.231 183.768 120.121 183.601 119.988C183.433 119.855 183.317 119.704 183.261 119.544C183.204 119.384 183.209 119.219 183.274 119.06C183.281 118.782 183.481 118.517 183.83 118.322C184.18 118.127 184.651 118.017 185.141 118.017C185.435 118.008 185.73 118.034 186.004 118.096C186.277 118.157 186.525 118.251 186.728 118.372C186.931 118.493 187.085 118.637 187.18 118.795C187.274 118.953 187.307 119.121 187.275 119.286ZM173.751 32.4088C173.751 32.6505 173.911 32.8922 174.071 33.4059C174.1 33.5043 174.163 33.5984 174.257 33.6829C174.351 33.7674 174.473 33.8406 174.617 33.8982C174.761 33.9557 174.923 33.9966 175.095 34.0184C175.267 34.0402 175.445 34.0425 175.618 34.0252C175.964 33.9919 176.272 33.8828 176.477 33.7217C176.682 33.5606 176.766 33.3603 176.712 33.1641C176.712 32.8922 176.472 32.5146 176.418 32.2427C176.38 32.0423 176.202 31.859 175.924 31.7329C175.646 31.6068 175.292 31.5484 174.938 31.5704C174.584 31.5924 174.26 31.6932 174.038 31.8504C173.815 32.0076 173.712 32.2085 173.751 32.4088ZM185.275 32.2124C185.32 32.3899 185.477 32.5521 185.718 32.6687C185.958 32.7854 186.265 32.8488 186.582 32.8469C186.775 32.8458 186.966 32.8214 187.141 32.7753C187.316 32.7292 187.472 32.6625 187.598 32.5796C187.725 32.4967 187.818 32.3995 187.873 32.2945C187.928 32.1895 187.942 32.0792 187.916 31.9707C187.702 31.306 187.649 31.2305 187.595 31.0492C187.553 30.8489 187.372 30.6663 187.092 30.5417C186.811 30.417 186.455 30.3605 186.102 30.3846C185.748 30.4086 185.426 30.5112 185.205 30.6699C184.985 30.8285 184.885 31.0302 184.928 31.2305C185.008 31.442 185.115 31.6837 185.275 32.2124ZM225.048 129.362C225.368 129.544 225.875 129.272 225.554 129.09C219.099 124.694 217.552 120.253 218.699 114.694C218.714 114.665 218.716 114.634 218.706 114.604C218.697 114.574 218.675 114.546 218.642 114.522C218.61 114.497 218.568 114.478 218.52 114.464C218.472 114.451 218.419 114.444 218.365 114.444C218.312 114.444 218.259 114.451 218.211 114.464C218.163 114.478 218.121 114.497 218.089 114.522C218.056 114.546 218.034 114.574 218.025 114.604C218.015 114.634 218.017 114.665 218.032 114.694C215.311 120.298 217.205 125.344 225.048 129.362Z" fill="#000640"/>
<path d="M279.572 113.018C279.222 112.997 278.871 113.055 278.597 113.179C278.322 113.304 278.145 113.485 278.105 113.683V114.68C278.105 114.88 278.245 115.072 278.495 115.214C278.746 115.355 279.085 115.435 279.439 115.435C279.792 115.435 280.131 115.355 280.382 115.214C280.632 115.072 280.772 114.88 280.772 114.68V113.879C280.798 113.777 280.788 113.674 280.741 113.575C280.694 113.476 280.612 113.383 280.499 113.302C280.387 113.222 280.247 113.155 280.087 113.106C279.928 113.057 279.752 113.027 279.572 113.018ZM294.163 115.541C294.335 115.553 294.51 115.547 294.677 115.521C294.844 115.495 295 115.45 295.137 115.39C295.273 115.329 295.387 115.254 295.472 115.169C295.557 115.083 295.611 114.989 295.63 114.891V113.909C295.63 113.709 295.49 113.517 295.24 113.375C294.99 113.234 294.65 113.154 294.297 113.154C293.945 113.158 293.61 113.239 293.361 113.379C293.112 113.52 292.97 113.71 292.963 113.909V114.71C292.944 114.809 292.961 114.91 293.011 115.005C293.062 115.101 293.145 115.19 293.257 115.267C293.369 115.344 293.506 115.408 293.662 115.455C293.817 115.502 293.988 115.531 294.163 115.541ZM283.066 120.707C285.248 121.099 287.567 121.177 289.815 120.934C290.082 120.934 290.055 120.692 289.815 120.707L288.135 120.571C286.475 120.493 284.806 120.493 283.146 120.571C282.88 120.45 282.8 120.692 283.066 120.707Z" fill="#000640"/>
</svg>
